<svg width="190" height="53" viewBox="0 0 190 53" fill="none" xmlns="http://www.w3.org/2000/svg">
<path d="M95.5062 41.7701C90.8206 41.7701 86.9506 40.2131 83.896 37.0993C80.8415 33.9855 79.3142 30.145 79.3142 25.5781C79.3142 20.9814 80.8415 17.141 83.896 14.0568C86.9506 10.943 90.8206 9.38605 95.5062 9.38605C98.3235 9.38605 100.918 10.0533 103.291 11.3878C105.693 12.6927 107.561 14.472 108.896 16.7258L103.602 19.7952C102.831 18.4014 101.734 17.3189 100.31 16.5479C98.887 15.7472 97.2856 15.3468 95.5062 15.3468C92.4813 15.3468 90.0347 16.2958 88.1664 18.1938C86.3278 20.0918 85.4085 22.5532 85.4085 25.5781C85.4085 28.5733 86.3278 31.0199 88.1664 32.9178C90.0347 34.8158 92.4813 35.7648 95.5062 35.7648C97.2856 35.7648 98.887 35.3793 100.31 34.6082C101.764 33.8075 102.861 32.7251 103.602 31.3609L108.896 34.4303C107.561 36.6841 105.708 38.4783 103.335 39.8128C100.963 41.1176 98.3532 41.7701 95.5062 41.7701Z" fill="#424242"/>
<path d="M132.554 41.1473L130.686 35.5424H118.275L116.407 41.1473H109.778L120.677 10.0088H128.284L139.227 41.1473H132.554ZM120.232 29.804H128.773L124.503 17.0817L120.232 29.804Z" fill="#424242"/>
<path d="M148.389 35.2755H160.266V41.1473H142.25V10.0088H148.389V35.2755Z" fill="#424242"/>
<path d="M176.61 41.7701C171.925 41.7701 168.055 40.2131 165 37.0993C161.946 33.9855 160.418 30.145 160.418 25.5781C160.418 20.9814 161.946 17.141 165 14.0568C168.055 10.943 171.925 9.38605 176.61 9.38605C179.428 9.38605 182.023 10.0533 184.395 11.3878C186.797 12.6927 188.666 14.472 190 16.7258L184.707 19.7952C183.935 18.4014 182.838 17.3189 181.415 16.5479C179.991 15.7472 178.39 15.3468 176.61 15.3468C173.586 15.3468 171.139 16.2958 169.271 18.1938C167.432 20.0918 166.513 22.5532 166.513 25.5781C166.513 28.5733 167.432 31.0199 169.271 32.9178C171.139 34.8158 173.586 35.7648 176.61 35.7648C178.39 35.7648 179.991 35.3793 181.415 34.6082C182.868 33.8075 183.965 32.7251 184.707 31.3609L190 34.4303C188.666 36.6841 186.812 38.4783 184.44 39.8128C182.067 41.1176 179.457 41.7701 176.61 41.7701Z" fill="#424242"/>
<path d="M0 5.56044C0 2.4895 2.4895 0 5.56044 0H43.9275C46.9985 0 49.4879 2.4895 49.4879 5.56044V7.78462C49.4879 10.8556 46.9985 13.3451 43.9275 13.3451H5.56044C2.48949 13.3451 0 10.8556 0 7.78462V5.56044Z" fill="#E74C3C"/>
<path d="M19.4617 23.9099C19.4617 20.839 21.9512 18.3495 25.0221 18.3495H63.3892C66.4601 18.3495 68.9496 20.839 68.9496 23.9099V26.1341C68.9496 29.205 66.4601 31.6945 63.3892 31.6945H25.0221C21.9512 31.6945 19.4617 29.205 19.4617 26.1341V23.9099Z" fill="#F1C40F"/>
<path d="M0 45.0396C0 41.9687 2.4895 39.4792 5.56044 39.4792H43.9275C46.9985 39.4792 49.4879 41.9687 49.4879 45.0396V47.2638C49.4879 50.3347 46.9985 52.8242 43.9275 52.8242H5.56044C2.48949 52.8242 0 50.3347 0 47.2638V45.0396Z" fill="#3742FA"/>
<path d="M13.3451 24.6725C13.3451 28.3577 10.3577 31.3451 6.67253 31.3451C2.98739 31.3451 0 28.3577 0 24.6725C0 20.9874 2.98739 18 6.67253 18C10.3577 18 13.3451 20.9874 13.3451 24.6725Z" fill="#2ECC71"/>
<path d="M68.9496 46.1517C68.9496 49.8368 65.9622 52.8242 62.277 52.8242C58.5919 52.8242 55.6045 49.8368 55.6045 46.1517C55.6045 42.4666 58.5919 39.4792 62.277 39.4792C65.9622 39.4792 68.9496 42.4666 68.9496 46.1517Z" fill="#E74C3C"/>
<path d="M68.9496 6.67253C68.9496 10.3577 65.9622 13.3451 62.277 13.3451C58.5919 13.3451 55.6045 10.3577 55.6045 6.67253C55.6045 2.98739 58.5919 0 62.277 0C65.9622 0 68.9496 2.98739 68.9496 6.67253Z" fill="#3742FA"/>
</svg>
