<svg width="1082" height="453" fill="none" xmlns="http://www.w3.org/2000/svg"><path d="M625.148 225.734c0 11.407-1.718 21.368-5.156 29.883-3.359 8.438-8.594 15.469-15.703 21.094-7.031 5.625-15.977 9.844-26.836 12.656-10.781 2.735-23.594 4.102-38.437 4.102-14.844 0-27.696-1.367-38.555-4.102-10.781-2.812-19.688-7.031-26.719-12.656-7.031-5.625-12.265-12.656-15.703-21.094-3.359-8.515-5.039-18.476-5.039-29.883 0-11.406 1.68-21.328 5.039-29.765 3.438-8.516 8.672-15.586 15.703-21.211 7.031-5.625 15.938-9.805 26.719-12.539 10.859-2.813 23.711-4.219 38.555-4.219 14.843 0 27.656 1.406 38.437 4.219 10.859 2.734 19.805 6.914 26.836 12.539 7.109 5.625 12.344 12.695 15.703 21.211 3.438 8.437 5.156 18.359 5.156 29.765zm-162.187 0c0 10.938 1.562 20.196 4.687 27.774 3.125 7.578 7.813 13.789 14.063 18.633 6.328 4.765 14.258 8.242 23.789 10.429 9.531 2.11 20.703 3.164 33.516 3.164 12.812 0 23.984-1.054 33.515-3.164 9.531-2.187 17.461-5.664 23.789-10.429 6.328-4.844 11.055-11.055 14.18-18.633 3.125-7.578 4.688-16.836 4.688-27.774 0-10.859-1.563-20.078-4.688-27.656-3.125-7.656-7.852-13.867-14.18-18.633-6.328-4.843-14.258-8.32-23.789-10.429-9.531-2.188-20.703-3.282-33.515-3.282-12.813 0-23.985 1.094-33.516 3.282-9.531 2.109-17.461 5.586-23.789 10.429-6.25 4.766-10.938 10.977-14.063 18.633-3.125 7.578-4.687 16.797-4.687 27.656zm310.43-24.726c0 4.765-.703 8.945-2.11 12.539-1.406 3.594-3.32 6.719-5.742 9.375-2.344 2.656-5.156 4.883-8.437 6.68-3.204 1.796-6.641 3.281-10.313 4.453a76.829 76.829 0 01-11.484 2.461c-3.907.546-7.735.898-11.485 1.054l43.125 45.352c.703.703 1.172 1.445 1.407 2.226.312.704.507 1.368.586 1.993 0 1.093-.391 2.031-1.172 2.812-.704.703-1.641 1.055-2.813 1.055-.859 0-1.797-.196-2.812-.586-.938-.391-1.875-1.133-2.813-2.227l-46.992-50.156h-43.828v44.063c0 1.171-.078 2.304-.235 3.398a10.574 10.574 0 01-.585 2.812 5.155 5.155 0 01-1.407 1.993c-.547.468-1.289.703-2.226.703-2.266 0-3.75-.86-4.453-2.578-.704-1.797-1.055-3.907-1.055-6.328V162.219c.078-.625.234-1.055.469-1.289.234-.235.625-.352 1.172-.352.624-.078 1.523-.117 2.695-.117h33.984c7.266 0 14.18.078 20.742.234 6.641.157 12.774.664 18.399 1.524 5.703.781 10.859 2.031 15.469 3.75 4.609 1.64 8.515 3.984 11.718 7.031 3.282 2.969 5.782 6.719 7.5 11.25 1.797 4.531 2.696 10.117 2.696 16.758zm-9.961 0c0-7.735-1.446-13.789-4.336-18.164-2.813-4.453-7.032-7.735-12.656-9.844-5.626-2.188-12.579-3.516-20.86-3.984-8.281-.547-17.851-.821-28.711-.821h-28.359v62.11h43.945c6.797 0 13.281-.313 19.453-.938 6.172-.625 11.563-1.953 16.172-3.984 4.688-2.11 8.399-5.078 11.133-8.906 2.812-3.829 4.219-8.985 4.219-15.469zm96.328-34.57c1.25-2.266 2.226-3.829 2.93-4.688.703-.859 1.757-1.289 3.164-1.289 1.093 0 2.031.43 2.812 1.289.859.781 1.953 2.344 3.281 4.688l64.688 116.718c.859 1.563 1.289 3.086 1.289 4.571 0 1.406-.391 2.5-1.172 3.281-.781.781-1.719 1.172-2.812 1.172-1.094 0-2.188-.391-3.282-1.172-1.015-.703-2.07-2.031-3.164-3.985L907.57 250.93h-83.437l-20.156 36.562c-.86 1.641-1.875 2.813-3.047 3.516-1.094.781-2.188 1.172-3.282 1.172-1.328 0-2.304-.469-2.929-1.407-.625-.937-.938-2.187-.938-3.75 0-.625.117-1.25.352-1.875l1.055-2.109 64.57-116.601zm44.414 77.578l-38.32-69.961-38.321 69.961h76.641zm174.608-43.008c0 4.765-.7 8.945-2.11 12.539-1.4 3.594-3.32 6.719-5.74 9.375-2.34 2.656-5.16 4.883-8.44 6.68-3.2 1.796-6.64 3.281-10.31 4.453a76.83 76.83 0 01-11.48 2.461c-3.91.546-7.74.898-11.49 1.054l43.13 45.352c.7.703 1.17 1.445 1.4 2.226.31.704.51 1.368.59 1.993 0 1.093-.39 2.031-1.17 2.812-.71.703-1.64 1.055-2.82 1.055-.86 0-1.79-.196-2.81-.586-.94-.391-1.87-1.133-2.81-2.227l-46.99-50.156h-43.832v44.063c0 1.171-.078 2.304-.234 3.398a10.535 10.535 0 01-.586 2.812 5.142 5.142 0 01-1.406 1.993c-.547.468-1.289.703-2.227.703-2.265 0-3.75-.86-4.453-2.578-.703-1.797-1.054-3.907-1.054-6.328V162.219c.078-.625.234-1.055.468-1.289.235-.235.625-.352 1.172-.352.625-.078 1.524-.117 2.695-.117h33.987c7.26 0 14.18.078 20.74.234 6.64.157 12.77.664 18.4 1.524 5.7.781 10.86 2.031 15.47 3.75 4.61 1.64 8.51 3.984 11.72 7.031 3.28 2.969 5.78 6.719 7.5 11.25 1.79 4.531 2.69 10.117 2.69 16.758zm-9.96 0c0-7.735-1.44-13.789-4.34-18.164-2.81-4.453-7.03-7.735-12.65-9.844-5.63-2.188-12.58-3.516-20.86-3.984-8.28-.547-17.85-.821-28.71-.821h-28.362v62.11h43.942c6.8 0 13.28-.313 19.46-.938 6.17-.625 11.56-1.953 16.17-3.984 4.69-2.11 8.4-5.078 11.13-8.906 2.81-3.829 4.22-8.985 4.22-15.469z" fill="#000"/><path d="M625.148 225.734c0 11.407-1.718 21.368-5.156 29.883-3.359 8.438-8.594 15.469-15.703 21.094-7.031 5.625-15.977 9.844-26.836 12.656-10.781 2.735-23.594 4.102-38.437 4.102-14.844 0-27.696-1.367-38.555-4.102-10.781-2.812-19.688-7.031-26.719-12.656-7.031-5.625-12.265-12.656-15.703-21.094-3.359-8.515-5.039-18.476-5.039-29.883 0-11.406 1.68-21.328 5.039-29.765 3.438-8.516 8.672-15.586 15.703-21.211 7.031-5.625 15.938-9.805 26.719-12.539 10.859-2.813 23.711-4.219 38.555-4.219 14.843 0 27.656 1.406 38.437 4.219 10.859 2.734 19.805 6.914 26.836 12.539 7.109 5.625 12.344 12.695 15.703 21.211 3.438 8.437 5.156 18.359 5.156 29.765zm-162.187 0c0 10.938 1.562 20.196 4.687 27.774 3.125 7.578 7.813 13.789 14.063 18.633 6.328 4.765 14.258 8.242 23.789 10.429 9.531 2.11 20.703 3.164 33.516 3.164 12.812 0 23.984-1.054 33.515-3.164 9.531-2.187 17.461-5.664 23.789-10.429 6.328-4.844 11.055-11.055 14.18-18.633 3.125-7.578 4.688-16.836 4.688-27.774 0-10.859-1.563-20.078-4.688-27.656-3.125-7.656-7.852-13.867-14.18-18.633-6.328-4.843-14.258-8.32-23.789-10.429-9.531-2.188-20.703-3.282-33.515-3.282-12.813 0-23.985 1.094-33.516 3.282-9.531 2.109-17.461 5.586-23.789 10.429-6.25 4.766-10.938 10.977-14.063 18.633-3.125 7.578-4.687 16.797-4.687 27.656zm310.43-24.726c0 4.765-.703 8.945-2.11 12.539-1.406 3.594-3.32 6.719-5.742 9.375-2.344 2.656-5.156 4.883-8.437 6.68-3.204 1.796-6.641 3.281-10.313 4.453a76.829 76.829 0 01-11.484 2.461c-3.907.546-7.735.898-11.485 1.054l43.125 45.352c.703.703 1.172 1.445 1.407 2.226.312.704.507 1.368.586 1.993 0 1.093-.391 2.031-1.172 2.812-.704.703-1.641 1.055-2.813 1.055-.859 0-1.797-.196-2.812-.586-.938-.391-1.875-1.133-2.813-2.227l-46.992-50.156h-43.828v44.063c0 1.171-.078 2.304-.235 3.398a10.574 10.574 0 01-.585 2.812 5.155 5.155 0 01-1.407 1.993c-.547.468-1.289.703-2.226.703-2.266 0-3.75-.86-4.453-2.578-.704-1.797-1.055-3.907-1.055-6.328V162.219c.078-.625.234-1.055.469-1.289.234-.235.625-.352 1.172-.352.624-.078 1.523-.117 2.695-.117h33.984c7.266 0 14.18.078 20.742.234 6.641.157 12.774.664 18.399 1.524 5.703.781 10.859 2.031 15.469 3.75 4.609 1.64 8.515 3.984 11.718 7.031 3.282 2.969 5.782 6.719 7.5 11.25 1.797 4.531 2.696 10.117 2.696 16.758zm-9.961 0c0-7.735-1.446-13.789-4.336-18.164-2.813-4.453-7.032-7.735-12.656-9.844-5.626-2.188-12.579-3.516-20.86-3.984-8.281-.547-17.851-.821-28.711-.821h-28.359v62.11h43.945c6.797 0 13.281-.313 19.453-.938 6.172-.625 11.563-1.953 16.172-3.984 4.688-2.11 8.399-5.078 11.133-8.906 2.812-3.829 4.219-8.985 4.219-15.469zm96.328-34.57c1.25-2.266 2.226-3.829 2.93-4.688.703-.859 1.757-1.289 3.164-1.289 1.093 0 2.031.43 2.812 1.289.859.781 1.953 2.344 3.281 4.688l64.688 116.718c.859 1.563 1.289 3.086 1.289 4.571 0 1.406-.391 2.5-1.172 3.281-.781.781-1.719 1.172-2.812 1.172-1.094 0-2.188-.391-3.282-1.172-1.015-.703-2.07-2.031-3.164-3.985L907.57 250.93h-83.437l-20.156 36.562c-.86 1.641-1.875 2.813-3.047 3.516-1.094.781-2.188 1.172-3.282 1.172-1.328 0-2.304-.469-2.929-1.407-.625-.937-.938-2.187-.938-3.75 0-.625.117-1.25.352-1.875l1.055-2.109 64.57-116.601zm44.414 77.578l-38.32-69.961-38.321 69.961h76.641zm174.608-43.008c0 4.765-.7 8.945-2.11 12.539-1.4 3.594-3.32 6.719-5.74 9.375-2.34 2.656-5.16 4.883-8.44 6.68-3.2 1.796-6.64 3.281-10.31 4.453a76.83 76.83 0 01-11.48 2.461c-3.91.546-7.74.898-11.49 1.054l43.13 45.352c.7.703 1.17 1.445 1.4 2.226.31.704.51 1.368.59 1.993 0 1.093-.39 2.031-1.17 2.812-.71.703-1.64 1.055-2.82 1.055-.86 0-1.79-.196-2.81-.586-.94-.391-1.87-1.133-2.81-2.227l-46.99-50.156h-43.832v44.063c0 1.171-.078 2.304-.234 3.398a10.535 10.535 0 01-.586 2.812 5.142 5.142 0 01-1.406 1.993c-.547.468-1.289.703-2.227.703-2.265 0-3.75-.86-4.453-2.578-.703-1.797-1.054-3.907-1.054-6.328V162.219c.078-.625.234-1.055.468-1.289.235-.235.625-.352 1.172-.352.625-.078 1.524-.117 2.695-.117h33.987c7.26 0 14.18.078 20.74.234 6.64.157 12.77.664 18.4 1.524 5.7.781 10.86 2.031 15.47 3.75 4.61 1.64 8.51 3.984 11.72 7.031 3.28 2.969 5.78 6.719 7.5 11.25 1.79 4.531 2.69 10.117 2.69 16.758zm-9.96 0c0-7.735-1.44-13.789-4.34-18.164-2.81-4.453-7.03-7.735-12.65-9.844-5.63-2.188-12.58-3.516-20.86-3.984-8.28-.547-17.85-.821-28.71-.821h-28.362v62.11h43.942c6.8 0 13.28-.313 19.46-.938 6.17-.625 11.56-1.953 16.17-3.984 4.69-2.11 8.4-5.078 11.13-8.906 2.81-3.829 4.22-8.985 4.22-15.469z" stroke="#000" stroke-width="6"/><g filter="url(#filter0_i)"><rect y="226.274" width="320" height="320" rx="91" transform="rotate(-45 0 226.274)" fill="url(#paint0_linear)"/></g><defs><linearGradient id="paint0_linear" x1="294.35" y1="520.237" x2="32.721" y2="258.607" gradientUnits="userSpaceOnUse"><stop stop-color="#014871"/><stop offset="1" stop-color="#A0EBCF"/></linearGradient><filter id="filter0_i" x="0" y="-16" width="452.548" height="468.548" filterUnits="userSpaceOnUse" color-interpolation-filters="sRGB"><feFlood flood-opacity="0" result="BackgroundImageFix"/><feBlend in="SourceGraphic" in2="BackgroundImageFix" result="shape"/><feColorMatrix in="SourceAlpha" values="0 0 0 0 0 0 0 0 0 0 0 0 0 0 0 0 0 0 127 0" result="hardAlpha"/><feMorphology radius="15" in="SourceAlpha" result="effect1_innerShadow"/><feOffset dy="-16"/><feGaussianBlur stdDeviation="20"/><feComposite in2="hardAlpha" operator="arithmetic" k2="-1" k3="1"/><feColorMatrix values="0 0 0 0 0 0 0 0 0 0 0 0 0 0 0 0 0 0 0.2 0"/><feBlend in2="shape" result="effect1_innerShadow"/></filter></defs></svg>