<svg width="190" height="53" fill="none" xmlns="http://www.w3.org/2000/svg"><path d="M95.506 41.77c-4.685 0-8.555-1.557-11.61-4.67-3.055-3.114-4.582-6.955-4.582-11.522 0-4.597 1.528-8.437 4.582-11.521 3.055-3.114 6.925-4.671 11.61-4.671 2.817 0 5.412.667 7.785 2.002 2.402 1.305 4.27 3.084 5.605 5.338l-5.294 3.07a8.071 8.071 0 00-3.292-3.248c-1.423-.8-3.024-1.201-4.804-1.201-3.025 0-5.471.949-7.34 2.847-1.838 1.898-2.757 4.36-2.757 7.384 0 2.995.919 5.442 2.757 7.34 1.869 1.898 4.315 2.847 7.34 2.847 1.78 0 3.381-.386 4.804-1.157 1.454-.8 2.551-1.883 3.292-3.247l5.294 3.07c-1.335 2.253-3.188 4.047-5.561 5.382-2.372 1.305-4.982 1.957-7.829 1.957zm37.048-.623l-1.868-5.605h-12.411l-1.868 5.605h-6.629l10.899-31.138h7.607l10.943 31.138h-6.673zm-12.322-11.343h8.541l-4.27-12.722-4.271 12.722zm28.157 5.472h11.877v5.871H142.25V10.01h6.139v25.267zm28.221 6.494c-4.685 0-8.555-1.557-11.61-4.67-3.054-3.114-4.582-6.955-4.582-11.522 0-4.597 1.528-8.437 4.582-11.521 3.055-3.114 6.925-4.671 11.61-4.671 2.818 0 5.413.667 7.785 2.002 2.402 1.305 4.271 3.084 5.605 5.338l-5.293 3.07a8.083 8.083 0 00-3.292-3.248c-1.424-.8-3.025-1.201-4.805-1.201-3.024 0-5.471.949-7.339 2.847-1.839 1.898-2.758 4.36-2.758 7.384 0 2.995.919 5.442 2.758 7.34 1.868 1.898 4.315 2.847 7.339 2.847 1.78 0 3.381-.386 4.805-1.157 1.453-.8 2.55-1.883 3.292-3.247L190 34.43c-1.334 2.253-3.188 4.047-5.56 5.382-2.373 1.305-4.983 1.957-7.83 1.957z" fill="#424242"/><path d="M0 5.56A5.56 5.56 0 015.56 0h38.367a5.56 5.56 0 015.56 5.56v2.225a5.56 5.56 0 01-5.56 5.56H5.56A5.56 5.56 0 010 7.785V5.56z" fill="#E74C3C"/><path d="M19.462 23.91a5.56 5.56 0 015.56-5.56H63.39a5.56 5.56 0 015.56 5.56v2.224a5.56 5.56 0 01-5.56 5.56H25.022a5.56 5.56 0 01-5.56-5.56V23.91z" fill="#F1C40F"/><path d="M0 45.04a5.56 5.56 0 015.56-5.56h38.367a5.56 5.56 0 015.56 5.56v2.224a5.56 5.56 0 01-5.56 5.56H5.56A5.56 5.56 0 010 47.264V45.04z" fill="#3742FA"/><path d="M13.345 24.672a6.673 6.673 0 11-13.345 0 6.673 6.673 0 0113.345 0z" fill="#2ECC71"/><path d="M68.95 46.152a6.673 6.673 0 11-13.345 0 6.673 6.673 0 0113.345 0z" fill="#E74C3C"/><path d="M68.95 6.673a6.673 6.673 0 11-13.346 0 6.673 6.673 0 0113.346 0z" fill="#3742FA"/></svg>