<?xml version="1.0" standalone="no"?>
<!DOCTYPE svg PUBLIC "-//W3C//DTD SVG 20010904//EN"
 "http://www.w3.org/TR/2001/REC-SVG-20010904/DTD/svg10.dtd">
<svg version="1.0" xmlns="http://www.w3.org/2000/svg"
 width="184.000000pt" height="184.000000pt" viewBox="0 0 184.000000 184.000000"
 preserveAspectRatio="xMidYMid meet">
<metadata>
Created by potrace 1.14, written by Peter Selinger 2001-2017
</metadata>
<g transform="translate(0.000000,184.000000) scale(0.100000,-0.100000)"
fill="#000000" stroke="none">
<path d="M84 1606 c-17 -8 -42 -29 -55 -47 -21 -29 -24 -46 -24 -116 0 -92 14
-122 76 -158 33 -19 54 -20 564 -20 291 -1 546 3 565 8 41 10 84 48 100 88 20
47 9 158 -19 198 -44 62 -36 61 -633 61 -433 -1 -549 -4 -574 -14z"/>
<path d="M1577 1599 c-123 -65 -120 -250 6 -316 55 -28 161 -12 202 31 36 38
49 74 50 133 0 53 -4 66 -31 100 -58 72 -149 93 -227 52z"/>
<path d="M115 1128 c-66 -23 -118 -101 -114 -171 6 -99 82 -171 180 -170 55 1
97 21 133 63 116 138 -27 338 -199 278z"/>
<path d="M589 1107 c-47 -31 -69 -80 -69 -150 0 -95 38 -156 110 -174 19 -5
276 -8 572 -8 l536 1 37 28 c46 36 65 79 65 151 0 73 -20 117 -66 149 l-39 26
-556 0 -556 0 -34 -23z"/>
<path d="M74 545 c-49 -30 -73 -77 -74 -145 0 -97 22 -140 89 -175 26 -13 99
-15 583 -13 l553 3 31 22 c44 31 64 79 64 153 0 79 -21 124 -72 154 l-40 23
-548 0 -549 0 -37 -22z"/>
<path d="M1615 561 c-101 -30 -155 -142 -116 -243 25 -65 107 -113 180 -103
125 17 193 138 142 252 -33 72 -131 116 -206 94z"/>
</g>
</svg>
