<svg width="94" height="20" viewBox="0 0 94 20" fill="none" xmlns="http://www.w3.org/2000/svg">
<path d="M31.2059 15V5.13H37.8699V6.824H33.3759V9.232H37.5619V10.926H33.3759V15H31.2059ZM41.0589 15.154C40.5455 15.154 40.0929 15.056 39.7009 14.86C39.3089 14.664 38.9962 14.398 38.7629 14.062C38.5389 13.726 38.4269 13.348 38.4269 12.928C38.4269 12.4333 38.5575 12.0367 38.8189 11.738C39.0802 11.4393 39.5049 11.2293 40.0929 11.108C40.6809 10.9773 41.4602 10.912 42.4309 10.912H42.9349V10.674C42.9349 10.2633 42.8415 9.974 42.6549 9.806C42.4682 9.62867 42.1509 9.54 41.7029 9.54C41.3295 9.54 40.9329 9.60067 40.5129 9.722C40.1022 9.834 39.6915 10.0067 39.2809 10.24L38.7069 8.826C38.9495 8.66733 39.2435 8.52267 39.5889 8.392C39.9435 8.26133 40.3122 8.16333 40.6949 8.098C41.0775 8.02333 41.4415 7.986 41.7869 7.986C42.8509 7.986 43.6442 8.22867 44.1669 8.714C44.6895 9.19 44.9509 9.932 44.9509 10.94V15H42.9769V13.964C42.8369 14.328 42.5989 14.6173 42.2629 14.832C41.9362 15.0467 41.5349 15.154 41.0589 15.154ZM41.5349 13.74C41.9269 13.74 42.2582 13.6047 42.5289 13.334C42.7995 13.0633 42.9349 12.7133 42.9349 12.284V12.004H42.4449C41.7262 12.004 41.2175 12.0693 40.9189 12.2C40.6202 12.3213 40.4709 12.536 40.4709 12.844C40.4709 13.1053 40.5595 13.32 40.7369 13.488C40.9235 13.656 41.1895 13.74 41.5349 13.74ZM49.8738 15.154C49.1272 15.154 48.4738 15.0093 47.9138 14.72C47.3632 14.4213 46.9385 14.0013 46.6398 13.46C46.3412 12.9187 46.1918 12.2793 46.1918 11.542C46.1918 10.8047 46.3412 10.17 46.6398 9.638C46.9385 9.106 47.3632 8.7 47.9138 8.42C48.4738 8.13067 49.1272 7.986 49.8738 7.986C50.3125 7.986 50.7558 8.05133 51.2038 8.182C51.6518 8.31267 52.0158 8.49933 52.2958 8.742L51.7078 10.198C51.4745 10.0113 51.2132 9.86667 50.9238 9.764C50.6345 9.652 50.3545 9.596 50.0838 9.596C49.5332 9.596 49.1038 9.76867 48.7958 10.114C48.4972 10.45 48.3478 10.9307 48.3478 11.556C48.3478 12.172 48.4972 12.6573 48.7958 13.012C49.1038 13.3573 49.5332 13.53 50.0838 13.53C50.3452 13.53 50.6205 13.4787 50.9098 13.376C51.2085 13.2733 51.4745 13.124 51.7078 12.928L52.2958 14.384C52.0158 14.6267 51.6518 14.818 51.2038 14.958C50.7558 15.0887 50.3125 15.154 49.8738 15.154ZM56.6466 15.154C55.8346 15.154 55.1346 15.0093 54.5466 14.72C53.968 14.4213 53.52 14.006 53.2026 13.474C52.8946 12.9327 52.7406 12.298 52.7406 11.57C52.7406 10.8607 52.89 10.24 53.1886 9.708C53.4966 9.16667 53.912 8.74667 54.4346 8.448C54.9666 8.14 55.578 7.986 56.2686 7.986C57.2673 7.986 58.0606 8.30333 58.6486 8.938C59.2366 9.56333 59.5306 10.4127 59.5306 11.486V12.018H54.7566C54.8313 12.5593 55.0273 12.956 55.3446 13.208C55.6713 13.4507 56.1193 13.572 56.6886 13.572C57.062 13.572 57.44 13.516 57.8226 13.404C58.2053 13.292 58.5506 13.1193 58.8586 12.886L59.4186 14.3C59.0733 14.5613 58.6486 14.7713 58.1446 14.93C57.65 15.0793 57.1506 15.154 56.6466 15.154ZM56.3526 9.386C55.9046 9.386 55.5406 9.52133 55.2606 9.792C54.99 10.0627 54.822 10.4407 54.7566 10.926H57.7806C57.7246 9.89933 57.2486 9.386 56.3526 9.386ZM65.0022 15.154C64.5169 15.154 64.0782 15.0467 63.6862 14.832C63.3036 14.6173 63.0189 14.3327 62.8322 13.978V15H60.7602V5.13H62.8742V9.05C63.0796 8.72333 63.3689 8.46667 63.7422 8.28C64.1249 8.084 64.5449 7.986 65.0022 7.986C65.5996 7.986 66.1222 8.13067 66.5702 8.42C67.0276 8.70933 67.3822 9.12 67.6342 9.652C67.8862 10.184 68.0122 10.8187 68.0122 11.556C68.0122 12.2933 67.8862 12.9327 67.6342 13.474C67.3822 14.006 67.0276 14.4213 66.5702 14.72C66.1222 15.0093 65.5996 15.154 65.0022 15.154ZM64.3722 13.572C64.8202 13.572 65.1842 13.4087 65.4642 13.082C65.7442 12.7553 65.8842 12.2467 65.8842 11.556C65.8842 10.8747 65.7442 10.3753 65.4642 10.058C65.1842 9.73133 64.8202 9.568 64.3722 9.568C63.9149 9.568 63.5462 9.73133 63.2662 10.058C62.9862 10.3753 62.8462 10.8747 62.8462 11.556C62.8462 12.2467 62.9862 12.7553 63.2662 13.082C63.5462 13.4087 63.9149 13.572 64.3722 13.572ZM72.6092 15.154C71.8718 15.154 71.2278 15.0093 70.6772 14.72C70.1358 14.4213 69.7158 14.006 69.4172 13.474C69.1185 12.9327 68.9692 12.2933 68.9692 11.556C68.9692 10.828 69.1185 10.198 69.4172 9.666C69.7158 9.12467 70.1358 8.70933 70.6772 8.42C71.2278 8.13067 71.8718 7.986 72.6092 7.986C73.3465 7.986 73.9858 8.13067 74.5272 8.42C75.0778 8.70933 75.5025 9.12467 75.8012 9.666C76.1092 10.198 76.2632 10.828 76.2632 11.556C76.2632 12.2933 76.1092 12.9327 75.8012 13.474C75.5025 14.006 75.0778 14.4213 74.5272 14.72C73.9858 15.0093 73.3465 15.154 72.6092 15.154ZM72.6092 13.572C73.0572 13.572 73.4212 13.4087 73.7012 13.082C73.9905 12.7553 74.1352 12.2467 74.1352 11.556C74.1352 10.8747 73.9905 10.3753 73.7012 10.058C73.4212 9.73133 73.0572 9.568 72.6092 9.568C72.1612 9.568 71.7972 9.73133 71.5172 10.058C71.2372 10.3753 71.0972 10.8747 71.0972 11.556C71.0972 12.2467 71.2372 12.7553 71.5172 13.082C71.7972 13.4087 72.1612 13.572 72.6092 13.572ZM80.8533 15.154C80.116 15.154 79.472 15.0093 78.9213 14.72C78.38 14.4213 77.96 14.006 77.6613 13.474C77.3626 12.9327 77.2133 12.2933 77.2133 11.556C77.2133 10.828 77.3626 10.198 77.6613 9.666C77.96 9.12467 78.38 8.70933 78.9213 8.42C79.472 8.13067 80.116 7.986 80.8533 7.986C81.5906 7.986 82.23 8.13067 82.7713 8.42C83.322 8.70933 83.7466 9.12467 84.0453 9.666C84.3533 10.198 84.5073 10.828 84.5073 11.556C84.5073 12.2933 84.3533 12.9327 84.0453 13.474C83.7466 14.006 83.322 14.4213 82.7713 14.72C82.23 15.0093 81.5906 15.154 80.8533 15.154ZM80.8533 13.572C81.3013 13.572 81.6653 13.4087 81.9453 13.082C82.2346 12.7553 82.3793 12.2467 82.3793 11.556C82.3793 10.8747 82.2346 10.3753 81.9453 10.058C81.6653 9.73133 81.3013 9.568 80.8533 9.568C80.4053 9.568 80.0413 9.73133 79.7613 10.058C79.4813 10.3753 79.3413 10.8747 79.3413 11.556C79.3413 12.2467 79.4813 12.7553 79.7613 13.082C80.0413 13.4087 80.4053 13.572 80.8533 13.572ZM85.7934 15V5.13H87.9074V10.968H87.9354L90.4694 8.126H92.9754L90.0634 11.416L93.1154 15H90.5674L87.9354 12.032H87.9074V15H85.7934Z" fill="white"/>
<path fill-rule="evenodd" clip-rule="evenodd" d="M1.10306 3.53281e-08H18.896C19.5055 -0.000152517 19.9997 0.493774 20 1.10306V18.8965C19.9998 19.5061 19.5056 20.0002 18.896 20H13.8086V12.2657H16.416L16.8066 9.23831H13.8086V7.31021C13.8086 6.43573 14.0514 5.83987 15.3053 5.83987H16.8945V3.13953C16.618 3.10275 15.6694 3.02051 14.5656 3.02051C12.2609 3.02051 10.6836 4.42676 10.6836 7.01038V9.23831H8.08594V12.2657H10.6836V20H1.10397C0.494537 20.0002 0.000305246 19.5062 3.53281e-08 18.8969V1.10397C-0.000152517 0.494537 0.493774 0.000305246 1.10306 3.53281e-08Z" fill="white"/>
</svg>
