<svg width="77" height="20" viewBox="0 0 77 20" fill="none" xmlns="http://www.w3.org/2000/svg">
<path d="M35.8836 15.14C34.7916 15.14 33.8676 14.9347 33.1116 14.524C32.3649 14.1133 31.7956 13.53 31.4036 12.774C31.0116 12.018 30.8156 11.122 30.8156 10.086C30.8156 9.04067 31.0162 8.14 31.4176 7.384C31.8189 6.61867 32.3976 6.03067 33.1536 5.62C33.9096 5.2 34.8149 4.99 35.8696 4.99C36.5602 4.99 37.2089 5.09267 37.8156 5.298C38.4222 5.494 38.9262 5.76933 39.3276 6.124L38.7256 7.524C38.2869 7.17867 37.8389 6.93133 37.3816 6.782C36.9242 6.63267 36.4202 6.558 35.8696 6.558C34.8242 6.558 34.0309 6.86133 33.4896 7.468C32.9576 8.07467 32.6916 8.94733 32.6916 10.086C32.6916 11.234 32.9669 12.1067 33.5176 12.704C34.0682 13.3013 34.8849 13.6 35.9676 13.6C36.2756 13.6 36.5882 13.5767 36.9056 13.53C37.2322 13.474 37.5542 13.3947 37.8716 13.292V10.996H35.6036V9.666H39.3696V14.412C38.9122 14.636 38.3709 14.8133 37.7456 14.944C37.1202 15.0747 36.4996 15.14 35.8836 15.14ZM44.4002 15.14C43.6908 15.14 43.0748 14.9953 42.5522 14.706C42.0295 14.4167 41.6235 14.006 41.3342 13.474C41.0448 12.9327 40.9002 12.298 40.9002 11.57C40.9002 10.842 41.0448 10.212 41.3342 9.68C41.6235 9.148 42.0295 8.73733 42.5522 8.448C43.0748 8.15867 43.6908 8.014 44.4002 8.014C45.1095 8.014 45.7255 8.15867 46.2482 8.448C46.7708 8.73733 47.1768 9.148 47.4662 9.68C47.7555 10.212 47.9002 10.842 47.9002 11.57C47.9002 12.298 47.7555 12.9327 47.4662 13.474C47.1768 14.006 46.7708 14.4167 46.2482 14.706C45.7255 14.9953 45.1095 15.14 44.4002 15.14ZM44.4002 13.81C44.9228 13.81 45.3428 13.6233 45.6602 13.25C45.9775 12.8673 46.1362 12.3073 46.1362 11.57C46.1362 10.8233 45.9775 10.268 45.6602 9.904C45.3428 9.53067 44.9228 9.344 44.4002 9.344C43.8775 9.344 43.4575 9.53067 43.1402 9.904C42.8228 10.268 42.6642 10.8233 42.6642 11.57C42.6642 12.3073 42.8228 12.8673 43.1402 13.25C43.4575 13.6233 43.8775 13.81 44.4002 13.81ZM52.4666 15.14C51.7572 15.14 51.1412 14.9953 50.6186 14.706C50.0959 14.4167 49.6899 14.006 49.4006 13.474C49.1112 12.9327 48.9666 12.298 48.9666 11.57C48.9666 10.842 49.1112 10.212 49.4006 9.68C49.6899 9.148 50.0959 8.73733 50.6186 8.448C51.1412 8.15867 51.7572 8.014 52.4666 8.014C53.1759 8.014 53.7919 8.15867 54.3146 8.448C54.8372 8.73733 55.2432 9.148 55.5326 9.68C55.8219 10.212 55.9666 10.842 55.9666 11.57C55.9666 12.298 55.8219 12.9327 55.5326 13.474C55.2432 14.006 54.8372 14.4167 54.3146 14.706C53.7919 14.9953 53.1759 15.14 52.4666 15.14ZM52.4666 13.81C52.9892 13.81 53.4092 13.6233 53.7266 13.25C54.0439 12.8673 54.2026 12.3073 54.2026 11.57C54.2026 10.8233 54.0439 10.268 53.7266 9.904C53.4092 9.53067 52.9892 9.344 52.4666 9.344C51.9439 9.344 51.5239 9.53067 51.2066 9.904C50.8892 10.268 50.7306 10.8233 50.7306 11.57C50.7306 12.3073 50.8892 12.8673 51.2066 13.25C51.5239 13.6233 51.9439 13.81 52.4666 13.81ZM60.603 17.66C59.9683 17.66 59.371 17.5853 58.811 17.436C58.2603 17.296 57.775 17.0767 57.355 16.778L57.859 15.56C58.251 15.8213 58.671 16.0127 59.119 16.134C59.567 16.2647 60.015 16.33 60.463 16.33C61.7136 16.33 62.339 15.728 62.339 14.524V13.586C62.143 13.9687 61.8396 14.272 61.429 14.496C61.0276 14.72 60.5796 14.832 60.085 14.832C59.469 14.832 58.9323 14.692 58.475 14.412C58.0176 14.1227 57.663 13.7213 57.411 13.208C57.159 12.6947 57.033 12.0973 57.033 11.416C57.033 10.7347 57.159 10.142 57.411 9.638C57.663 9.12467 58.0176 8.728 58.475 8.448C58.9323 8.15867 59.469 8.014 60.085 8.014C60.5983 8.014 61.0556 8.13067 61.457 8.364C61.8583 8.588 62.1523 8.89133 62.339 9.274V8.154H64.047V14.314C64.047 15.4247 63.753 16.26 63.165 16.82C62.577 17.38 61.723 17.66 60.603 17.66ZM60.561 13.502C61.1023 13.502 61.5316 13.3153 61.849 12.942C62.1663 12.5687 62.325 12.06 62.325 11.416C62.325 10.772 62.1663 10.268 61.849 9.904C61.5316 9.53067 61.1023 9.344 60.561 9.344C60.0196 9.344 59.5903 9.53067 59.273 9.904C58.9556 10.268 58.797 10.772 58.797 11.416C58.797 12.06 58.9556 12.5687 59.273 12.942C59.5903 13.3153 60.0196 13.502 60.561 13.502ZM68.2402 15.14C67.4282 15.14 66.8262 14.9207 66.4342 14.482C66.0515 14.034 65.8602 13.3807 65.8602 12.522V5.13H67.6102V12.438C67.6102 13.278 67.9649 13.698 68.6742 13.698C68.7769 13.698 68.8795 13.6933 68.9822 13.684C69.0849 13.6747 69.1829 13.656 69.2762 13.628L69.2482 15.014C68.9122 15.098 68.5762 15.14 68.2402 15.14ZM73.6365 15.14C72.8619 15.14 72.1945 14.9953 71.6345 14.706C71.0745 14.4167 70.6405 14.006 70.3325 13.474C70.0339 12.942 69.8845 12.312 69.8845 11.584C69.8845 10.8747 70.0292 10.254 70.3185 9.722C70.6172 9.19 71.0232 8.77467 71.5365 8.476C72.0592 8.168 72.6519 8.014 73.3145 8.014C74.2852 8.014 75.0505 8.322 75.6105 8.938C76.1799 9.554 76.4645 10.394 76.4645 11.458V11.976H71.5645C71.6952 13.1987 72.3952 13.81 73.6645 13.81C74.0472 13.81 74.4299 13.754 74.8125 13.642C75.1952 13.5207 75.5452 13.334 75.8625 13.082L76.3525 14.258C76.0259 14.5287 75.6152 14.7433 75.1205 14.902C74.6259 15.0607 74.1312 15.14 73.6365 15.14ZM73.3845 9.204C72.8712 9.204 72.4559 9.36267 72.1385 9.68C71.8212 9.99733 71.6299 10.4267 71.5645 10.968H75.0085C74.9712 10.3987 74.8125 9.96467 74.5325 9.666C74.2619 9.358 73.8792 9.204 73.3845 9.204Z" fill="#4F4F4F"/>
<g clip-path="url(#clip0_91_43)">
<path d="M4.43242 12.0862L3.73625 14.6851L1.19176 14.739C0.431328 13.3285 0 11.7148 0 9.99997C0 8.34173 0.403281 6.77798 1.11812 5.40106H1.11867L3.38398 5.81637L4.37633 8.06809C4.16863 8.6736 4.05543 9.3236 4.05543 9.99997C4.05551 10.734 4.18848 11.4374 4.43242 12.0862Z" fill="#FBBB00"/>
<path d="M19.8261 8.13184C19.941 8.73676 20.0009 9.36148 20.0009 9.99996C20.0009 10.7159 19.9256 11.4143 19.7822 12.0879C19.2954 14.3802 18.0234 16.3818 16.2613 17.7983L16.2608 17.7978L13.4075 17.6522L13.0037 15.1313C14.1729 14.4456 15.0866 13.3725 15.568 12.0879H10.2207V8.13184H15.646H19.8261Z" fill="#518EF8"/>
<path d="M16.2595 17.7978L16.2601 17.7984C14.5464 19.1758 12.3694 20 9.99965 20C6.19141 20 2.88043 17.8715 1.19141 14.739L4.43207 12.0863C5.27656 14.3401 7.45074 15.9445 9.99965 15.9445C11.0952 15.9445 12.1216 15.6484 13.0024 15.1313L16.2595 17.7978Z" fill="#28B446"/>
<path d="M16.382 2.30219L13.1425 4.95437C12.2309 4.38461 11.1534 4.05547 9.99906 4.05547C7.39246 4.05547 5.17762 5.73348 4.37543 8.06812L1.11773 5.40109H1.11719C2.78148 2.1923 6.13422 0 9.99906 0C12.4254 0 14.6502 0.864297 16.382 2.30219Z" fill="#F14336"/>
</g>
<defs>
<clipPath id="clip0_91_43">
<rect width="20" height="20" fill="white"/>
</clipPath>
</defs>
</svg>
