<svg width="94" height="20" fill="none" xmlns="http://www.w3.org/2000/svg"><path d="M31.206 15V5.13h6.664v1.694h-4.494v2.408h4.186v1.694h-4.186V15h-2.17zm9.853.154c-.514 0-.966-.098-1.358-.294a2.452 2.452 0 01-.938-.798 1.998 1.998 0 01-.336-1.134c0-.495.13-.891.392-1.19.261-.299.686-.509 1.274-.63.588-.13 1.367-.196 2.338-.196h.504v-.238c0-.41-.093-.7-.28-.868-.187-.177-.504-.266-.952-.266-.373 0-.77.06-1.19.182a5.34 5.34 0 00-1.232.518l-.574-1.414a4.53 4.53 0 01.882-.434c.355-.13.723-.229 1.106-.294a5.707 5.707 0 011.092-.112c1.064 0 1.857.243 2.38.728.523.476.784 1.218.784 2.226V15h-1.974v-1.036c-.14.364-.378.653-.714.868-.327.215-.728.322-1.204.322zm.476-1.414c.392 0 .723-.135.994-.406.27-.27.406-.62.406-1.05v-.28h-.49c-.719 0-1.227.065-1.526.196-.299.121-.448.336-.448.644a.85.85 0 00.266.644c.186.168.453.252.798.252zm8.339 1.414c-.747 0-1.4-.145-1.96-.434a3.127 3.127 0 01-1.274-1.26c-.299-.541-.448-1.18-.448-1.918 0-.737.15-1.372.448-1.904a2.974 2.974 0 011.274-1.218c.56-.29 1.213-.434 1.96-.434.438 0 .882.065 1.33.196.448.13.812.317 1.092.56l-.588 1.456a2.677 2.677 0 00-.784-.434 2.32 2.32 0 00-.84-.168c-.55 0-.98.173-1.288.518-.299.336-.448.817-.448 1.442 0 .616.15 1.101.448 1.456.308.345.737.518 1.288.518.261 0 .536-.051.826-.154.299-.103.565-.252.798-.448l.588 1.456c-.28.243-.644.434-1.092.574a4.76 4.76 0 01-1.33.196zm6.773 0c-.812 0-1.512-.145-2.1-.434a3.276 3.276 0 01-1.344-1.246c-.308-.541-.462-1.176-.462-1.904 0-.71.149-1.33.448-1.862a3.299 3.299 0 011.246-1.26c.532-.308 1.143-.462 1.834-.462.998 0 1.792.317 2.38.952.588.625.882 1.475.882 2.548v.532h-4.774c.074.541.27.938.588 1.19.326.243.774.364 1.344.364.373 0 .751-.056 1.134-.168a3.178 3.178 0 001.036-.518l.56 1.414a4.19 4.19 0 01-1.274.63c-.495.15-.994.224-1.498.224zm-.294-5.768c-.448 0-.812.135-1.092.406-.271.27-.439.649-.504 1.134h3.024c-.056-1.027-.532-1.54-1.428-1.54zm8.65 5.768c-.486 0-.925-.107-1.317-.322a2.09 2.09 0 01-.854-.854V15H60.76V5.13h2.114v3.92c.206-.327.495-.583.868-.77a2.723 2.723 0 011.26-.294c.598 0 1.12.145 1.568.434.458.29.812.7 1.064 1.232s.378 1.167.378 1.904c0 .737-.126 1.377-.378 1.918a2.965 2.965 0 01-1.064 1.246c-.448.29-.97.434-1.568.434zm-.63-1.582c.447 0 .811-.163 1.091-.49.28-.327.42-.835.42-1.526 0-.681-.14-1.18-.42-1.498-.28-.327-.644-.49-1.092-.49-.457 0-.826.163-1.106.49-.28.317-.42.817-.42 1.498 0 .69.14 1.2.42 1.526.28.327.649.49 1.106.49zm8.236 1.582c-.737 0-1.381-.145-1.932-.434a3.173 3.173 0 01-1.26-1.246c-.299-.541-.448-1.18-.448-1.918 0-.728.15-1.358.448-1.89a3.057 3.057 0 011.26-1.246c.55-.29 1.195-.434 1.932-.434.738 0 1.377.145 1.918.434.55.29.975.705 1.274 1.246.308.532.462 1.162.462 1.89 0 .737-.154 1.377-.462 1.918a3.151 3.151 0 01-1.274 1.246c-.541.29-1.18.434-1.918.434zm0-1.582c.448 0 .812-.163 1.092-.49.29-.327.434-.835.434-1.526 0-.681-.145-1.18-.434-1.498-.28-.327-.644-.49-1.092-.49-.448 0-.812.163-1.092.49-.28.317-.42.817-.42 1.498 0 .69.14 1.2.42 1.526.28.327.644.49 1.092.49zm8.244 1.582c-.737 0-1.381-.145-1.932-.434a3.174 3.174 0 01-1.26-1.246c-.298-.541-.448-1.18-.448-1.918 0-.728.15-1.358.448-1.89a3.058 3.058 0 011.26-1.246c.551-.29 1.195-.434 1.932-.434.738 0 1.377.145 1.918.434.551.29.976.705 1.274 1.246.308.532.462 1.162.462 1.89 0 .737-.154 1.377-.462 1.918a3.15 3.15 0 01-1.274 1.246c-.541.29-1.18.434-1.918.434zm0-1.582c.448 0 .812-.163 1.092-.49.29-.327.434-.835.434-1.526 0-.681-.144-1.18-.434-1.498-.28-.327-.644-.49-1.092-.49-.448 0-.812.163-1.092.49-.28.317-.42.817-.42 1.498 0 .69.14 1.2.42 1.526.28.327.644.49 1.092.49zM85.793 15V5.13h2.114v5.838h.028l2.534-2.842h2.506l-2.912 3.29L93.115 15h-2.548l-2.632-2.968h-.028V15h-2.114z" fill="#fff"/><path fill-rule="evenodd" clip-rule="evenodd" d="M1.103 0h17.793C19.506 0 20 .494 20 1.103v17.794c0 .61-.494 1.103-1.104 1.103h-5.087v-7.734h2.607l.39-3.028H13.81V7.31c0-.874.242-1.47 1.496-1.47h1.59v-2.7a21.36 21.36 0 00-2.33-.12c-2.304 0-3.881 1.407-3.881 3.99v2.228H8.086v3.028h2.598V20h-9.58C.494 20 0 19.506 0 18.897V1.104C0 .494.494 0 1.103 0z" fill="#fff"/></svg>