<svg width="77" height="20" fill="none" xmlns="http://www.w3.org/2000/svg"><path d="M35.884 15.14c-1.092 0-2.016-.205-2.772-.616a4.12 4.12 0 01-1.708-1.75c-.392-.756-.588-1.652-.588-2.688 0-1.045.2-1.946.602-2.702a4.165 4.165 0 011.736-1.764c.756-.42 1.66-.63 2.716-.63.69 0 1.339.103 1.946.308.606.196 1.11.471 1.512.826l-.602 1.4a4.378 4.378 0 00-1.344-.742 4.85 4.85 0 00-1.512-.224c-1.046 0-1.84.303-2.38.91-.532.607-.798 1.48-.798 2.618 0 1.148.275 2.02.826 2.618.55.597 1.367.896 2.45.896.308 0 .62-.023.938-.07.326-.056.648-.135.966-.238v-2.296h-2.268v-1.33h3.766v4.746a6.911 6.911 0 01-1.624.532 9.082 9.082 0 01-1.862.196zm8.516 0c-.71 0-1.325-.145-1.848-.434-.523-.29-.928-.7-1.218-1.232-.29-.541-.434-1.176-.434-1.904s.145-1.358.434-1.89c.29-.532.695-.943 1.218-1.232.523-.29 1.139-.434 1.848-.434.71 0 1.325.145 1.848.434.523.29.929.7 1.218 1.232.29.532.434 1.162.434 1.89s-.145 1.363-.434 1.904c-.29.532-.695.943-1.218 1.232-.523.29-1.139.434-1.848.434zm0-1.33c.523 0 .943-.187 1.26-.56.318-.383.476-.943.476-1.68 0-.747-.159-1.302-.476-1.666-.317-.373-.737-.56-1.26-.56s-.942.187-1.26.56c-.317.364-.476.92-.476 1.666 0 .737.159 1.297.476 1.68.318.373.737.56 1.26.56zm8.067 1.33c-.71 0-1.326-.145-1.848-.434a3.03 3.03 0 01-1.218-1.232c-.29-.541-.434-1.176-.434-1.904s.144-1.358.434-1.89a3.03 3.03 0 011.218-1.232c.522-.29 1.138-.434 1.848-.434.709 0 1.325.145 1.848.434.522.29.928.7 1.218 1.232.289.532.434 1.162.434 1.89s-.145 1.363-.434 1.904c-.29.532-.696.943-1.218 1.232-.523.29-1.14.434-1.848.434zm0-1.33c.522 0 .942-.187 1.26-.56.317-.383.476-.943.476-1.68 0-.747-.16-1.302-.476-1.666-.318-.373-.738-.56-1.26-.56-.523 0-.943.187-1.26.56-.318.364-.476.92-.476 1.666 0 .737.158 1.297.476 1.68.317.373.737.56 1.26.56zm8.136 3.85a6.932 6.932 0 01-1.792-.224 4.323 4.323 0 01-1.456-.658l.504-1.218a4.27 4.27 0 001.26.574c.448.13.896.196 1.344.196 1.25 0 1.876-.602 1.876-1.806v-.938a2.14 2.14 0 01-.91.91 2.71 2.71 0 01-1.344.336c-.616 0-1.153-.14-1.61-.42a2.903 2.903 0 01-1.064-1.204c-.252-.513-.378-1.11-.378-1.792 0-.681.126-1.274.378-1.778a2.81 2.81 0 011.064-1.19c.457-.29.994-.434 1.61-.434.513 0 .97.117 1.372.35.401.224.695.527.882.91v-1.12h1.708v6.16c0 1.11-.294 1.946-.882 2.506-.588.56-1.442.84-2.562.84zm-.042-4.158c.541 0 .97-.187 1.288-.56.317-.373.476-.882.476-1.526s-.159-1.148-.476-1.512c-.317-.373-.747-.56-1.288-.56s-.97.187-1.288.56c-.317.364-.476.868-.476 1.512s.159 1.153.476 1.526c.317.373.747.56 1.288.56zm7.68 1.638c-.813 0-1.415-.22-1.807-.658-.382-.448-.574-1.101-.574-1.96V5.13h1.75v7.308c0 .84.355 1.26 1.064 1.26.103 0 .205-.005.308-.014.103-.01.2-.028.294-.056l-.028 1.386a4.142 4.142 0 01-1.008.126zm5.395 0c-.774 0-1.441-.145-2.001-.434a3.13 3.13 0 01-1.303-1.232c-.298-.532-.447-1.162-.447-1.89 0-.71.144-1.33.433-1.862a3.256 3.256 0 011.219-1.246c.522-.308 1.115-.462 1.777-.462.971 0 1.737.308 2.297.924.569.616.853 1.456.853 2.52v.518h-4.9c.131 1.223.831 1.834 2.1 1.834.383 0 .766-.056 1.148-.168a3.258 3.258 0 001.05-.56l.49 1.176c-.326.27-.737.485-1.231.644a4.83 4.83 0 01-1.484.238zm-.251-5.936c-.514 0-.93.159-1.247.476-.317.317-.508.747-.574 1.288h3.445c-.038-.57-.197-1.003-.477-1.302-.27-.308-.653-.462-1.147-.462z" fill="#4F4F4F"/><g clip-path="url(#clip0_91_43)"><path d="M4.432 12.086l-.696 2.6-2.544.053A9.956 9.956 0 010 10a9.95 9.95 0 011.118-4.599l2.266.415.992 2.252A5.944 5.944 0 004.056 10c0 .734.132 1.437.376 2.086z" fill="#FBBB00"/><path d="M19.826 8.132a10.018 10.018 0 01-.044 3.956 9.998 9.998 0 01-3.52 5.71h-.001l-2.853-.146-.404-2.52a5.96 5.96 0 002.564-3.044h-5.347V8.132h9.605z" fill="#518EF8"/><path d="M16.26 17.798A9.958 9.958 0 0110 20a9.998 9.998 0 01-8.809-5.261l3.241-2.653a5.946 5.946 0 008.57 3.045l3.257 2.667z" fill="#28B446"/><path d="M16.382 2.302l-3.24 2.652a5.948 5.948 0 00-8.767 3.114L1.118 5.401A9.998 9.998 0 019.998 0c2.426 0 4.651.864 6.383 2.302z" fill="#F14336"/></g><defs><clipPath id="clip0_91_43"><path fill="#fff" d="M0 0h20v20H0z"/></clipPath></defs></svg>