<svg width="64" height="64" viewBox="0 0 64 64" fill="none" xmlns="http://www.w3.org/2000/svg">
<path d="M49 33H15C13.895 33 13 32.105 13 31V7C13 5.895 13.895 5 15 5H49C50.105 5 51 5.895 51 7V31C51 32.105 50.105 33 49 33Z" fill="#F1C40F"/>
<path d="M58 1H6C3.243 1 1 3.243 1 6V32C1 34.757 3.243 37 6 37H20V45.597C20 46.728 20.39 47.837 21.096 48.721L24 52.351V62C24 62.553 24.447 63 25 63H39C39.553 63 40 62.553 40 62V52.277L42.287 48.465C42.754 47.687 43 46.797 43 45.892V37H58C60.757 37 63 34.757 63 32V6C63 3.243 60.757 1 58 1ZM3 32V6C3 4.346 4.346 3 6 3H9V35H6C4.346 35 3 33.654 3 32ZM41 45.892C41 46.436 40.852 46.969 40.572 47.436L38.142 51.486C38.049 51.641 38 51.818 38 52V61H26V52C26 51.773 25.923 51.553 25.781 51.375L22.658 47.471C22.233 46.94 22 46.275 22 45.597V36.108C22 35.57 22.362 35.09 22.825 35.015C23.128 34.966 23.42 35.045 23.647 35.238C23.871 35.428 24 35.706 24 36V41C24 41.553 24.447 42 25 42C25.553 42 26 41.553 26 41V36V34C26 33.462 26.362 32.982 26.824 32.907C27.131 32.854 27.42 32.937 27.647 33.131C27.871 33.321 28 33.6 28 33.893C28 33.912 28.01 33.928 28.011 33.947C28.01 33.965 28 33.981 28 34V41C28 41.553 28.447 42 29 42C29.553 42 30 41.553 30 41V34C30 33.981 29.99 33.965 29.989 33.946C29.99 33.927 30 33.912 30 33.893V32C30 31.462 30.362 30.982 30.824 30.907C31.132 30.856 31.42 30.938 31.647 31.131C31.871 31.321 32 31.6 32 31.893V41C32 41.553 32.447 42 33 42C33.553 42 34 41.553 34 41V31.893V27V21C34 20.706 34.129 20.428 34.353 20.237C34.581 20.044 34.873 19.963 35.175 20.014C35.638 20.09 36 20.569 36 21.107V41C36 41.553 36.447 42 37 42C37.553 42 38 41.553 38 41V33C39.654 33 41 34.346 41 36V45.892ZM37.814 20.038C37.448 19.009 36.573 18.216 35.497 18.041C34.617 17.899 33.729 18.143 33.058 18.715C32.641 19.07 32.35 19.531 32.178 20.037C32.118 20.025 32.063 20 32 20H25V14H45V20H38C37.934 20 37.876 20.025 37.814 20.038ZM42.901 35.02C42.444 32.731 40.421 31 38 31V22H46C46.553 22 47 21.553 47 21V13C47 12.447 46.553 12 46 12H24C23.447 12 23 12.447 23 13V21C23 21.553 23.447 22 24 22H32V27V29.065C31.527 28.899 31.015 28.85 30.503 28.932C29.364 29.118 28.449 29.994 28.126 31.112C27.62 30.908 27.061 30.842 26.503 30.932C25.332 31.123 24.398 32.045 24.1 33.208C23.599 33.011 23.05 32.951 22.503 33.039C21.441 33.212 20.575 33.989 20.2 34.999H11V3H53V35H43C42.965 35 42.935 35.016 42.901 35.02ZM61 32C61 33.654 59.654 35 58 35H55V3H58C59.654 3 61 4.346 61 6V32Z" fill="black"/>
<path d="M6 14C5.447 14 5 14.447 5 15V23C5 23.553 5.447 24 6 24C6.553 24 7 23.553 7 23V15C7 14.447 6.553 14 6 14Z" fill="black"/>
<path d="M22 24H14C13.447 24 13 24.447 13 25C13 25.553 13.447 26 14 26H22C22.553 26 23 25.553 23 25C23 24.447 22.553 24 22 24Z" fill="black"/>
<path d="M22 28H14C13.447 28 13 28.447 13 29C13 29.553 13.447 30 14 30H22C22.553 30 23 29.553 23 29C23 28.447 22.553 28 22 28Z" fill="black"/>
<path d="M50 24H42C41.447 24 41 24.447 41 25C41 25.553 41.447 26 42 26H50C50.553 26 51 25.553 51 25C51 24.447 50.553 24 50 24Z" fill="black"/>
<path d="M22 7H14C13.447 7 13 7.447 13 8C13 8.553 13.447 9 14 9H22C22.553 9 23 8.553 23 8C23 7.447 22.553 7 22 7Z" fill="black"/>
<path d="M46 7H38C37.447 7 37 7.447 37 8C37 8.553 37.447 9 38 9H46C46.553 9 47 8.553 47 8C47 7.447 46.553 7 46 7Z" fill="black"/>
<path d="M50 28H42C41.447 28 41 28.447 41 29C41 29.553 41.447 30 42 30H50C50.553 30 51 29.553 51 29C51 28.447 50.553 28 50 28Z" fill="black"/>
<path d="M50 9C50.5523 9 51 8.55228 51 8C51 7.44772 50.5523 7 50 7C49.4477 7 49 7.44772 49 8C49 8.55228 49.4477 9 50 9Z" fill="black"/>
<path d="M26 9C26.5523 9 27 8.55228 27 8C27 7.44772 26.5523 7 26 7C25.4477 7 25 7.44772 25 8C25 8.55228 25.4477 9 26 9Z" fill="black"/>
<path d="M30 9C30.5523 9 31 8.55228 31 8C31 7.44772 30.5523 7 30 7C29.4477 7 29 7.44772 29 8C29 8.55228 29.4477 9 30 9Z" fill="black"/>
</svg>
