<svg width="62" height="62" viewBox="0 0 62 62" fill="none" xmlns="http://www.w3.org/2000/svg">
<path d="M37 49H25C23.895 49 23 48.105 23 47C23 45.895 23.895 45 25 45H37C38.105 45 39 45.895 39 47C39 48.105 38.105 49 37 49Z" fill="#F1C40F"/>
<path d="M62 49V13C62 11.346 60.654 10 59 10H54.802C54.575 8.262 53.795 6.654 52.535 5.394C52.144 5.003 51.512 5.003 51.121 5.394C50.73 5.785 50.73 6.417 51.121 6.808C52.255 7.942 52.879 9.449 52.879 11.051C52.879 12.653 52.255 14.16 51.121 15.294C50.73 15.685 50.73 16.317 51.121 16.708C51.316 16.902 51.572 17 51.828 17C52.084 17 52.34 16.902 52.535 16.707C52.759 16.483 52.963 16.245 53.157 16H56V42H6V16H9.424C10.089 17.514 11.482 18.628 13.158 18.915C13.547 20.12 14.667 21 16 21H20C20.669 21 21.335 21.026 22 21.053V32C22 34.757 24.243 37 27 37C29.757 37 32 34.757 32 32V22.479C34.932 23.209 37.806 24.193 40.6 25.463L41.586 25.911C41.721 25.972 41.861 26.001 41.999 26.001C42.38 26.001 42.743 25.783 42.91 25.414C43.139 24.912 42.917 24.318 42.414 24.09L41.428 23.642C34.955 20.7 28.088 19.143 21 19.009V8.991C28.088 8.857 34.955 7.301 41.428 4.359L42.414 3.911C42.917 3.683 43.139 3.09 42.91 2.587C42.682 2.085 42.093 1.86 41.586 2.09L40.6 2.538C34.085 5.499 27.154 7 20 7H16C14.667 7 13.547 7.88 13.158 9.085C12.366 9.221 11.644 9.543 11.025 10.005C11.016 10.005 11.009 10 11 10H3C1.346 10 0 11.346 0 13V49C0 50.654 1.346 52 3 52H17.914L0.621 59.074C0.245 59.228 0 59.594 0 60V61C0 61.552 0.447 62 1 62H6C6.107 62 6.214 61.983 6.316 61.949L24.163 56H37.838L55.684 61.949C55.786 61.983 55.893 62 56 62H61C61.553 62 62 61.552 62 61V60C62 59.594 61.755 59.228 61.379 59.074L44.086 52H59C60.654 52 62 50.654 62 49ZM24 25H26V30H24V25ZM30 32C30 33.654 28.654 35 27 35C25.346 35 24 33.654 24 32H27C27.553 32 28 31.552 28 31V24C28 23.448 27.553 23 27 23H24V21.176C26.023 21.337 28.025 21.614 30 22.019V32ZM11 14C11 12.698 11.839 11.598 13 11.184V16.815C11.839 16.402 11 15.302 11 14ZM16 9H19V11H18C17.447 11 17 11.448 17 12C17 12.552 17.447 13 18 13H19V15H18C17.447 15 17 15.448 17 16C17 16.552 17.447 17 18 17H19V19H16C15.448 19 15 18.551 15 18V10C15 9.449 15.448 9 16 9ZM2 49V13C2 12.449 2.448 12 3 12H9.424C9.154 12.614 9 13.288 9 14H5C4.447 14 4 14.448 4 15V43C4 43.552 4.447 44 5 44H57C57.553 44 58 43.552 58 43V15C58 14.448 57.553 14 57 14H54.314C54.567 13.362 54.736 12.691 54.817 12H59C59.552 12 60 12.449 60 13V49C60 49.551 59.552 50 59 50H23.012C23.011 50 23.01 50 23.008 50H3C2.448 50 2 49.551 2 49ZM5.838 60H3.641L23 52.081V54.279L5.838 60ZM25 54V52H37V54H25ZM56.162 60L39 54.279V52.081L58.359 60H56.162Z" fill="black"/>
<path d="M36 48C36.5523 48 37 47.5523 37 47C37 46.4477 36.5523 46 36 46C35.4477 46 35 46.4477 35 47C35 47.5523 35.4477 48 36 48Z" fill="black"/>
<path d="M31 48C31.5523 48 32 47.5523 32 47C32 46.4477 31.5523 46 31 46C30.4477 46 30 46.4477 30 47C30 47.5523 30.4477 48 31 48Z" fill="black"/>
<path d="M26 48C26.5523 48 27 47.5523 27 47C27 46.4477 26.5523 46 26 46C25.4477 46 25 46.4477 25 47C25 47.5523 25.4477 48 26 48Z" fill="black"/>
<path d="M53 40C53.5523 40 54 39.5523 54 39C54 38.4477 53.5523 38 53 38C52.4477 38 52 38.4477 52 39C52 39.5523 52.4477 40 53 40Z" fill="black"/>
<path d="M48 40C48.5523 40 49 39.5523 49 39C49 38.4477 48.5523 38 48 38C47.4477 38 47 38.4477 47 39C47 39.5523 47.4477 40 48 40Z" fill="black"/>
<path d="M43 40C43.5523 40 44 39.5523 44 39C44 38.4477 43.5523 38 43 38C42.4477 38 42 38.4477 42 39C42 39.5523 42.4477 40 43 40Z" fill="black"/>
<path d="M53 34H43C42.447 34 42 34.448 42 35C42 35.552 42.447 36 43 36H53C53.553 36 54 35.552 54 35C54 34.448 53.553 34 53 34Z" fill="black"/>
<path d="M42 31C42 31.552 42.447 32 43 32H53C53.553 32 54 31.552 54 31C54 30.448 53.553 30 53 30H43C42.447 30 42 30.448 42 31Z" fill="black"/>
<path d="M48.293 13.879C48.488 14.074 48.744 14.172 49 14.172C49.256 14.172 49.512 14.074 49.707 13.879C50.463 13.124 50.879 12.119 50.879 11.05C50.879 9.981 50.463 8.977 49.707 8.221C49.316 7.83 48.684 7.83 48.293 8.221C47.902 8.612 47.902 9.244 48.293 9.635C48.671 10.013 48.879 10.515 48.879 11.05C48.879 11.585 48.671 12.087 48.293 12.465C47.902 12.855 47.902 13.488 48.293 13.879Z" fill="black"/>
<path d="M27 11C26.447 11 26 11.448 26 12V16C26 16.552 26.447 17 27 17H35C35.553 17 36 16.552 36 16V12C36 11.448 35.553 11 35 11H27ZM28 13H30V15H28V13ZM34 15H32V13H34V15Z" fill="black"/>
<path d="M44 28C42.346 28 41 26.654 41 25V3C41 1.346 42.346 0 44 0C45.654 0 47 1.346 47 3V25C47 26.654 45.654 28 44 28Z" fill="#F1C40F"/>
</svg>
