<svg width="62" height="62" viewBox="0 0 62 62" fill="none" xmlns="http://www.w3.org/2000/svg">
<path d="M41.153 9.981C44.126 12.722 46 16.637 46 21V29C46 31.209 44.209 33 42 33H41.81C41.334 35.59 39.949 37.853 38 39.466V40V44L48.558 46.112C50.7 46.54 52.537 47.825 53.696 49.616C56.416 45.402 58 40.388 58 35C58 23.681 51.032 13.994 41.153 9.981Z" fill="#F1C40F"/>
<path d="M24 40V39.466C22.052 37.853 20.667 35.59 20.19 33H20C17.791 33 16 31.209 16 29V21C16 16.637 17.874 12.722 20.847 9.981C10.968 13.994 4 23.681 4 35C4 40.388 5.584 45.402 8.304 49.616C9.463 47.825 11.3 46.54 13.442 46.112L24 44V40Z" fill="#F1C40F"/>
<path d="M23.7241 61C26.0401 61.647 28.4781 62 31.0001 62C33.5221 62 35.9601 61.647 38.2761 61H23.7241Z" fill="#00F4CB"/>
<path d="M62 6.00001C62 3.79401 60.206 2.00001 58 2.00001H13.236L9.447 0.105007C9.135 -0.049993 8.767 -0.0329931 8.47 0.152007L0.47 5.15201C0.415 5.18601 0.368 5.23001 0.321 5.27401C0.31 5.28401 0.297 5.29101 0.286 5.30201C0.207 5.38301 0.147 5.47801 0.1 5.57901C0.088 5.60401 0.0800001 5.62801 0.0700001 5.65401C0.0290001 5.76401 0 5.87901 0 6.00001C0 6.12101 0.0290001 6.23601 0.0700001 6.34601C0.0800001 6.37201 0.088 6.39601 0.1 6.42101C0.147 6.52301 0.208 6.61701 0.287 6.69801C0.297 6.70901 0.31 6.71601 0.321 6.72601C0.368 6.77001 0.415 6.81401 0.47 6.84801L8.47 11.848C8.632 11.949 8.815 12 9 12C9.153 12 9.306 11.965 9.447 11.895L13.236 10H19.411C16.685 12.87 15 16.738 15 21V29C15 31.544 16.917 33.627 19.379 33.937C19.974 36.288 21.26 38.361 23.014 39.931C23.012 39.955 23 39.976 23 40V43.18L13.245 45.131C10.164 45.747 7.593 47.968 6.535 50.929L3.058 60.663C2.949 60.969 2.995 61.309 3.182 61.576C3.37 61.842 3.675 62 4 62H58C58.325 62 58.63 61.842 58.817 61.576C59.005 61.31 59.05 60.97 58.941 60.663L55.464 50.929C54.406 47.969 51.835 45.747 48.754 45.131L39 43.18V40C39 39.976 38.988 39.955 38.986 39.932C40.74 38.362 42.026 36.289 42.621 33.938C45.083 33.627 47 31.544 47 29V21C47 16.738 45.315 12.87 42.589 10H58C60.206 10 62 8.20601 62 6.00001ZM9.055 9.85501L4.487 7.00001H6C6.553 7.00001 7 6.55201 7 6.00001C7 5.44801 6.553 5.00001 6 5.00001H4.487L9.055 2.14501L12 3.61801V8.38201L9.055 9.85501ZM14 4.00001H58C59.103 4.00001 60 4.89701 60 6.00001C60 7.10301 59.103 8.00001 58 8.00001H40.292C37.669 6.12001 34.466 5.00001 31 5.00001C27.534 5.00001 24.331 6.12001 21.708 8.00001H14V4.00001ZM17 29C17 27.698 17.839 26.598 19 26.184V31C19 31.28 19.023 31.554 19.042 31.829C17.859 31.427 17 30.317 17 29ZM48.362 47.092C50.759 47.571 52.758 49.299 53.582 51.602L56.581 60H5.419L8.418 51.602C9.241 49.299 11.24 47.571 13.638 47.092L23.516 45.116C24.384 46.383 26.696 49 31 49C35.304 49 37.616 46.383 38.485 45.117L48.362 47.092ZM37 43.736C36.568 44.444 34.751 47 31 47C27.247 47 25.441 44.467 25 43.738V41.376C26.767 42.402 28.813 43 31 43C33.187 43 35.233 42.402 37 41.376V43.736ZM31 41C25.486 41 21 36.514 21 31V24H23.758C26.439 24 28.976 23.068 31 21.357C33.024 23.068 35.562 24 38.242 24H41V31C41 36.514 36.514 41 31 41ZM42.958 31.829C42.977 31.554 43 31.28 43 31V26.184C44.161 26.598 45 27.698 45 29C45 30.317 44.141 31.427 42.958 31.829ZM45 25.026C44.416 24.584 43.743 24.253 43 24.102V22C43 21.448 42.553 21 42 21C41.447 21 41 21.448 41 22H38.242C35.773 22 33.453 21.039 31.707 19.293C31.316 18.902 30.684 18.902 30.293 19.293C28.547 21.039 26.227 22 23.758 22H21C21 21.448 20.553 21 20 21C19.447 21 19 21.448 19 22V24.101C18.257 24.253 17.584 24.583 17 25.025V21C17 13.28 23.28 7.00001 31 7.00001C38.72 7.00001 45 13.28 45 21V25.026Z" fill="black"/>
<path d="M9 7C9.55228 7 10 6.55228 10 6C10 5.44772 9.55228 5 9 5C8.44772 5 8 5.44772 8 6C8 6.55228 8.44772 7 9 7Z" fill="black"/>
<path d="M52 38C52.5523 38 53 37.5523 53 37C53 36.4477 52.5523 36 52 36C51.4477 36 51 36.4477 51 37C51 37.5523 51.4477 38 52 38Z" fill="black"/>
<path d="M53 27C53 26.448 52.553 26 52 26C51.447 26 51 26.448 51 27V33C51 33.552 51.447 34 52 34C52.553 34 53 33.552 53 33V27Z" fill="black"/>
<path d="M48 43C48.5523 43 49 42.5523 49 42C49 41.4477 48.5523 41 48 41C47.4477 41 47 41.4477 47 42C47 42.5523 47.4477 43 48 43Z" fill="black"/>
<path d="M49 32C49 31.448 48.553 31 48 31C47.447 31 47 31.448 47 32V38C47 38.552 47.447 39 48 39C48.553 39 49 38.552 49 38V32Z" fill="black"/>
<path d="M10 38C10.5523 38 11 37.5523 11 37C11 36.4477 10.5523 36 10 36C9.44772 36 9 36.4477 9 37C9 37.5523 9.44772 38 10 38Z" fill="black"/>
<path d="M25 28C25.5523 28 26 27.5523 26 27C26 26.4477 25.5523 26 25 26C24.4477 26 24 26.4477 24 27C24 27.5523 24.4477 28 25 28Z" fill="black"/>
<path d="M37 28C37.5523 28 38 27.5523 38 27C38 26.4477 37.5523 26 37 26C36.4477 26 36 26.4477 36 27C36 27.5523 36.4477 28 37 28Z" fill="black"/>
<path d="M11 33V27C11 26.448 10.553 26 10 26C9.447 26 9 26.448 9 27V33C9 33.552 9.447 34 10 34C10.553 34 11 33.552 11 33Z" fill="black"/>
<path d="M14 43C14.5523 43 15 42.5523 15 42C15 41.4477 14.5523 41 14 41C13.4477 41 13 41.4477 13 42C13 42.5523 13.4477 43 14 43Z" fill="black"/>
<path d="M15 38V32C15 31.448 14.553 31 14 31C13.447 31 13 31.448 13 32V38C13 38.552 13.447 39 14 39C14.553 39 15 38.552 15 38Z" fill="black"/>
<path d="M34 33C33.447 33 33 33.448 33 34C33 35.103 32.103 36 31 36C29.897 36 29 35.103 29 34C29 33.448 28.553 33 28 33C27.447 33 27 33.448 27 34C27 36.206 28.794 38 31 38C33.206 38 35 36.206 35 34C35 33.448 34.553 33 34 33Z" fill="black"/>
</svg>
