<svg width="64" height="64" viewBox="0 0 64 64" fill="none" xmlns="http://www.w3.org/2000/svg">
<path d="M62 1H2C1.447 1 1 1.448 1 2V50C1 50.552 1.447 51 2 51H13C13.553 51 14 50.552 14 50C14 49.448 13.553 49 13 49H3V11H61V49H54V19C54 15.691 51.309 13 48 13C44.691 13 42 15.691 42 19V49H37C36.447 49 36 49.448 36 50C36 50.552 36.447 51 37 51H42V54C42 54.119 42.028 54.234 42.07 54.344C42.082 54.377 42.096 54.406 42.112 54.437C42.127 54.467 42.135 54.5 42.153 54.529L47.153 62.529C47.335 62.822 47.655 63 48 63C48.345 63 48.665 62.822 48.848 62.53L53.848 54.53C53.866 54.501 53.874 54.468 53.889 54.438C53.904 54.407 53.919 54.377 53.931 54.344C53.972 54.234 54 54.119 54 54V51H62C62.553 51 63 50.552 63 50V2C63 1.448 62.553 1 62 1ZM49 53V28H52V53H49ZM44 53V28H47V53H44ZM52 26H44V24H52V26ZM48 15C50.206 15 52 16.794 52 19V22H44V19C44 16.794 45.794 15 48 15ZM48 60.113L44.804 55H51.196L48 60.113ZM3 9V3H61V9H3Z" fill="black"/>
<path d="M38 34H10C9.447 34 9 33.553 9 33V17C9 16.447 9.447 16 10 16H38C38.553 16 39 16.447 39 17V33C39 33.553 38.553 34 38 34Z" fill="#F1C40F"/>
<path d="M7 7C7.55228 7 8 6.55228 8 6C8 5.44772 7.55228 5 7 5C6.44772 5 6 5.44772 6 6C6 6.55228 6.44772 7 7 7Z" fill="black"/>
<path d="M11 7C11.5523 7 12 6.55228 12 6C12 5.44772 11.5523 5 11 5C10.4477 5 10 5.44772 10 6C10 6.55228 10.4477 7 11 7Z" fill="black"/>
<path d="M15 7C15.5523 7 16 6.55228 16 6C16 5.44772 15.5523 5 15 5C14.4477 5 14 5.44772 14 6C14 6.55228 14.4477 7 15 7Z" fill="black"/>
<path d="M17 30C17.5523 30 18 29.5523 18 29C18 28.4477 17.5523 28 17 28C16.4477 28 16 28.4477 16 29C16 29.5523 16.4477 30 17 30Z" fill="black"/>
<path d="M24 30C24.5523 30 25 29.5523 25 29C25 28.4477 24.5523 28 24 28C23.4477 28 23 28.4477 23 29C23 29.5523 23.4477 30 24 30Z" fill="black"/>
<path d="M31 30C31.5523 30 32 29.5523 32 29C32 28.4477 31.5523 28 31 28C30.4477 28 30 28.4477 30 29C30 29.5523 30.4477 30 31 30Z" fill="black"/>
<path d="M34 22H14C13.447 22 13 21.552 13 21C13 20.448 13.447 20 14 20H34C34.553 20 35 20.448 35 21C35 21.552 34.553 22 34 22Z" fill="black"/>
<path d="M34 26H14C13.447 26 13 25.552 13 25C13 24.448 13.447 24 14 24H34C34.553 24 35 24.448 35 25C35 25.552 34.553 26 34 26Z" fill="black"/>
<path d="M37.258 46.634L35.285 46.109C35.206 45.899 35.118 45.69 35.023 45.482L36.047 43.713C36.275 43.321 36.209 42.825 35.889 42.505L32.494 39.11C32.174 38.79 31.677 38.724 31.286 38.952L29.517 39.976C29.309 39.881 29.1 39.793 28.89 39.714L28.365 37.741C28.25 37.305 27.854 37 27.4 37H22.6C22.147 37 21.75 37.305 21.634 37.742L21.109 39.715C20.899 39.794 20.69 39.882 20.482 39.977L18.713 38.953C18.321 38.725 17.825 38.791 17.505 39.111L14.11 42.506C13.79 42.826 13.724 43.322 13.952 43.714L14.976 45.483C14.881 45.691 14.793 45.9 14.714 46.11L12.741 46.635C12.305 46.75 12 47.146 12 47.6V52.4C12 52.853 12.305 53.25 12.742 53.366L14.715 53.891C14.794 54.101 14.882 54.31 14.977 54.518L13.953 56.287C13.725 56.679 13.791 57.175 14.111 57.495L17.506 60.89C17.826 61.21 18.322 61.276 18.714 61.048L20.483 60.024C20.691 60.119 20.9 60.207 21.11 60.286L21.635 62.259C21.75 62.695 22.146 63 22.6 63H27.4C27.853 63 28.25 62.695 28.366 62.258L28.891 60.285C29.101 60.206 29.31 60.118 29.518 60.023L31.287 61.047C31.678 61.275 32.175 61.209 32.495 60.889L35.89 57.494C36.21 57.174 36.276 56.678 36.048 56.286L35.024 54.517C35.119 54.309 35.207 54.1 35.286 53.89L37.259 53.365C37.695 53.25 38 52.854 38 52.4V47.6C38 47.146 37.695 46.75 37.258 46.634ZM25 56C21.686 56 19 53.314 19 50C19 46.686 21.686 44 25 44C28.314 44 31 46.686 31 50C31 53.314 28.314 56 25 56Z" fill="#F1C40F"/>
<path d="M25 57C21.141 57 18 53.86 18 50C18 46.14 21.141 43 25 43C28.859 43 32 46.14 32 50C32 53.86 28.859 57 25 57ZM25 45C22.243 45 20 47.243 20 50C20 52.757 22.243 55 25 55C27.757 55 30 52.757 30 50C30 47.243 27.757 45 25 45Z" fill="black"/>
</svg>
