<svg width="11" height="18" viewBox="0 0 11 18" fill="none" xmlns="http://www.w3.org/2000/svg">
<path d="M1.18784 1.22591C1.57285 0.829949 2.20595 0.821075 2.60191 1.20609L9.7714 8.17735C10.1674 8.56236 10.1762 9.19546 9.79122 9.59142C9.40621 9.98738 8.77311 9.99626 8.37715 9.61124L1.20766 2.63998C0.8117 2.25497 0.802825 1.62187 1.18784 1.22591Z" fill="black"/>
<path d="M9.78491 8.19269C10.1802 8.57837 10.188 9.21149 9.80235 9.6068L2.819 16.7645C2.43332 17.1598 1.8002 17.1676 1.40489 16.7819C1.00958 16.3963 1.00177 15.7631 1.38745 15.3678L8.37081 8.21012C8.75649 7.81482 9.38961 7.80701 9.78491 8.19269Z" fill="black"/>
</svg>
