<svg width="20" height="21" viewBox="0 0 20 21" fill="none" xmlns="http://www.w3.org/2000/svg">
<path fill-rule="evenodd" clip-rule="evenodd" d="M0.5 18C0.5 14.9624 2.96243 12.5 6 12.5H14C17.0376 12.5 19.5 14.9624 19.5 18V19.5C19.5 20.3284 18.8284 21 18 21C17.1716 21 16.5 20.3284 16.5 19.5V18C16.5 16.6193 15.3807 15.5 14 15.5H6C4.61929 15.5 3.5 16.6193 3.5 18V19.5C3.5 20.3284 2.82843 21 2 21C1.17157 21 0.5 20.3284 0.5 19.5V18Z" fill="#09244B"/>
<path fill-rule="evenodd" clip-rule="evenodd" d="M10 3.5C8.61929 3.5 7.5 4.61929 7.5 6C7.5 7.38071 8.61929 8.5 10 8.5C11.3807 8.5 12.5 7.38071 12.5 6C12.5 4.61929 11.3807 3.5 10 3.5ZM4.5 6C4.5 2.96243 6.96243 0.5 10 0.5C13.0376 0.5 15.5 2.96243 15.5 6C15.5 9.03757 13.0376 11.5 10 11.5C6.96243 11.5 4.5 9.03757 4.5 6Z" fill="#09244B"/>
</svg>
