<?xml version="1.0" encoding="UTF-8"?>
<svg width="700pt" height="700pt" version="1.1" viewBox="0 0 700 700" xmlns="http://www.w3.org/2000/svg" xmlns:xlink="http://www.w3.org/1999/xlink">
 <defs>
  <symbol id="w" overflow="visible">
   <path d="m18.766-1.125c-0.96875 0.5-1.9805 0.875-3.0312 1.125-1.043 0.25781-2.1367 0.39062-3.2812 0.39062-3.3984 0-6.0898-0.94531-8.0781-2.8438-1.9922-1.9062-2.9844-4.4844-2.9844-7.7344 0-3.2578 0.99219-5.8359 2.9844-7.7344 1.9883-1.9062 4.6797-2.8594 8.0781-2.8594 1.1445 0 2.2383 0.13281 3.2812 0.39062 1.0508 0.25 2.0625 0.625 3.0312 1.125v4.2188c-0.98047-0.65625-1.9453-1.1406-2.8906-1.4531-0.94922-0.3125-1.9492-0.46875-3-0.46875-1.875 0-3.3516 0.60547-4.4219 1.8125-1.0742 1.1992-1.6094 2.8555-1.6094 4.9688 0 2.1055 0.53516 3.7617 1.6094 4.9688 1.0703 1.1992 2.5469 1.7969 4.4219 1.7969 1.0508 0 2.0508-0.14844 3-0.45312 0.94531-0.3125 1.9102-0.80078 2.8906-1.4688z"/>
  </symbol>
  <symbol id="a" overflow="visible">
   <path d="m13.734-11.141c-0.4375-0.19531-0.87109-0.34375-1.2969-0.4375-0.41797-0.10156-0.83984-0.15625-1.2656-0.15625-1.2617 0-2.2305 0.40625-2.9062 1.2188-0.67969 0.80469-1.0156 1.9531-1.0156 3.4531v7.0625h-4.8906v-15.312h4.8906v2.5156c0.625-1 1.3438-1.7266 2.1562-2.1875 0.82031-0.46875 1.8008-0.70312 2.9375-0.70312 0.16406 0 0.34375 0.011719 0.53125 0.03125 0.19531 0.011719 0.47656 0.039062 0.84375 0.078125z"/>
  </symbol>
  <symbol id="e" overflow="visible">
   <path d="m17.641-7.7031v1.4062h-11.453c0.125 1.1484 0.53906 2.0078 1.25 2.5781 0.70703 0.57422 1.7031 0.85938 2.9844 0.85938 1.0312 0 2.082-0.14844 3.1562-0.45312 1.082-0.3125 2.1914-0.77344 3.3281-1.3906v3.7656c-1.1562 0.4375-2.3125 0.76562-3.4688 0.98438-1.1562 0.22656-2.3125 0.34375-3.4688 0.34375-2.7734 0-4.9297-0.70312-6.4688-2.1094-1.5312-1.4062-2.2969-3.3789-2.2969-5.9219 0-2.5 0.75391-4.4609 2.2656-5.8906 1.5078-1.4375 3.582-2.1562 6.2188-2.1562 2.4062 0 4.332 0.73047 5.7812 2.1875 1.4453 1.4492 2.1719 3.3828 2.1719 5.7969zm-5.0312-1.625c0-0.92578-0.27344-1.6719-0.8125-2.2344-0.54297-0.57031-1.25-0.85938-2.125-0.85938-0.94922 0-1.7188 0.26562-2.3125 0.79688s-0.96484 1.2969-1.1094 2.2969z"/>
  </symbol>
  <symbol id="d" overflow="visible">
   <path d="m9.2188-6.8906c-1.0234 0-1.793 0.17188-2.3125 0.51562-0.51172 0.34375-0.76562 0.85547-0.76562 1.5312 0 0.625 0.20703 1.1172 0.625 1.4688 0.41406 0.34375 0.98828 0.51562 1.7188 0.51562 0.92578 0 1.7031-0.32812 2.3281-0.98438 0.63281-0.66406 0.95312-1.4922 0.95312-2.4844v-0.5625zm7.4688-1.8438v8.7344h-4.9219v-2.2656c-0.65625 0.92969-1.3984 1.6055-2.2188 2.0312-0.82422 0.41406-1.8242 0.625-3 0.625-1.5859 0-2.8711-0.45703-3.8594-1.375-0.99219-0.92578-1.4844-2.1289-1.4844-3.6094 0-1.7891 0.61328-3.1016 1.8438-3.9375 1.2383-0.84375 3.1797-1.2656 5.8281-1.2656h2.8906v-0.39062c0-0.76953-0.30859-1.332-0.92188-1.6875-0.61719-0.36328-1.5703-0.54688-2.8594-0.54688-1.0547 0-2.0312 0.10547-2.9375 0.3125-0.89844 0.21094-1.7305 0.52344-2.5 0.9375v-3.7344c1.0391-0.25 2.0859-0.44141 3.1406-0.57812 1.0625-0.13281 2.125-0.20312 3.1875-0.20312 2.7578 0 4.75 0.54688 5.9688 1.6406 1.2266 1.0859 1.8438 2.8555 1.8438 5.3125z"/>
  </symbol>
  <symbol id="c" overflow="visible">
   <path d="m7.7031-19.656v4.3438h5.0469v3.5h-5.0469v6.5c0 0.71094 0.14062 1.1875 0.42188 1.4375s0.83594 0.375 1.6719 0.375h2.5156v3.5h-4.1875c-1.9375 0-3.3125-0.39844-4.125-1.2031-0.80469-0.8125-1.2031-2.1797-1.2031-4.1094v-6.5h-2.4219v-3.5h2.4219v-4.3438z"/>
  </symbol>
  <symbol id="b" overflow="visible">
   <path d="m12.766-13.078v-8.2031h4.9219v21.281h-4.9219v-2.2188c-0.66797 0.90625-1.4062 1.5703-2.2188 1.9844s-1.7578 0.625-2.8281 0.625c-1.8867 0-3.4336-0.75-4.6406-2.25-1.2109-1.5-1.8125-3.4258-1.8125-5.7812 0-2.3633 0.60156-4.2969 1.8125-5.7969 1.207-1.5 2.7539-2.25 4.6406-2.25 1.0625 0 2 0.21484 2.8125 0.64062 0.82031 0.42969 1.5664 1.0859 2.2344 1.9688zm-3.2188 9.9219c1.0391 0 1.8359-0.37891 2.3906-1.1406 0.55078-0.76953 0.82812-1.8828 0.82812-3.3438 0-1.457-0.27734-2.5664-0.82812-3.3281-0.55469-0.76953-1.3516-1.1562-2.3906-1.1562-1.043 0-1.8398 0.38672-2.3906 1.1562-0.55469 0.76172-0.82812 1.8711-0.82812 3.3281 0 1.4609 0.27344 2.5742 0.82812 3.3438 0.55078 0.76172 1.3477 1.1406 2.3906 1.1406z"/>
  </symbol>
  <symbol id="m" overflow="visible">
   <path d="m10.5-3.1562c1.0508 0 1.8516-0.37891 2.4062-1.1406 0.55078-0.76953 0.82812-1.8828 0.82812-3.3438 0-1.457-0.27734-2.5664-0.82812-3.3281-0.55469-0.76953-1.3555-1.1562-2.4062-1.1562-1.0547 0-1.8594 0.38672-2.4219 1.1562-0.55469 0.77344-0.82812 1.8828-0.82812 3.3281 0 1.4492 0.27344 2.5586 0.82812 3.3281 0.5625 0.77344 1.3672 1.1562 2.4219 1.1562zm-3.25-9.9219c0.67578-0.88281 1.4219-1.5391 2.2344-1.9688 0.82031-0.42578 1.7656-0.64062 2.8281-0.64062 1.8945 0 3.4453 0.75 4.6562 2.25 1.207 1.5 1.8125 3.4336 1.8125 5.7969 0 2.3555-0.60547 4.2812-1.8125 5.7812-1.2109 1.5-2.7617 2.25-4.6562 2.25-1.0625 0-2.0078-0.21094-2.8281-0.625-0.8125-0.42578-1.5586-1.0859-2.2344-1.9844v2.2188h-4.8906v-21.281h4.8906z"/>
  </symbol>
  <symbol id="l" overflow="visible">
   <path d="m0.34375-15.312h4.8906l4.125 10.391 3.5-10.391h4.8906l-6.4375 16.766c-0.64844 1.6953-1.4023 2.8828-2.2656 3.5625-0.86719 0.6875-2 1.0312-3.4062 1.0312h-2.8438v-3.2188h1.5312c0.83203 0 1.4375-0.13672 1.8125-0.40625 0.38281-0.26172 0.67969-0.73047 0.89062-1.4062l0.14062-0.42188z"/>
  </symbol>
  <symbol id="k" overflow="visible">
   <path d="m2.5781-20.406h6.6875l4.6562 10.922 4.6719-10.922h6.6875v20.406h-4.9844v-14.938l-4.7031 11.016h-3.3281l-4.7031-11.016v14.938h-4.9844z"/>
  </symbol>
  <symbol id="g" overflow="visible">
   <path d="m2.1875-5.9688v-9.3438h4.9219v1.5312c0 0.83594-0.007813 1.875-0.015625 3.125-0.011719 1.25-0.015625 2.0859-0.015625 2.5 0 1.2422 0.03125 2.1328 0.09375 2.6719 0.070313 0.54297 0.17969 0.93359 0.32812 1.1719 0.20703 0.32422 0.47266 0.57422 0.79688 0.75 0.32031 0.16797 0.69141 0.25 1.1094 0.25 1.0195 0 1.8203-0.39062 2.4062-1.1719 0.58203-0.78125 0.875-1.8672 0.875-3.2656v-7.5625h4.8906v15.312h-4.8906v-2.2188c-0.74219 0.89844-1.5234 1.5586-2.3438 1.9844-0.82422 0.41406-1.7344 0.625-2.7344 0.625-1.7617 0-3.1055-0.53906-4.0312-1.625-0.92969-1.082-1.3906-2.6602-1.3906-4.7344z"/>
  </symbol>
  <symbol id="i" overflow="visible">
   <path d="m17.75-9.3281v9.3281h-4.9219v-7.1094c0-1.3438-0.03125-2.2656-0.09375-2.7656s-0.16797-0.86719-0.3125-1.1094c-0.1875-0.3125-0.44922-0.55469-0.78125-0.73438-0.32422-0.17578-0.69531-0.26562-1.1094-0.26562-1.0234 0-1.8242 0.39844-2.4062 1.1875-0.58594 0.78125-0.875 1.8711-0.875 3.2656v7.5312h-4.8906v-21.281h4.8906v8.2031c0.73828-0.88281 1.5195-1.5391 2.3438-1.9688 0.83203-0.42578 1.75-0.64062 2.75-0.64062 1.7695 0 3.1133 0.54688 4.0312 1.6406 0.91406 1.0859 1.375 2.6562 1.375 4.7188z"/>
  </symbol>
  <symbol id="h" overflow="visible">
   <path d="m16.547-12.766c0.61328-0.94531 1.3477-1.6719 2.2031-2.1719 0.85156-0.5 1.7891-0.75 2.8125-0.75 1.7578 0 3.0977 0.54688 4.0156 1.6406 0.92578 1.0859 1.3906 2.6562 1.3906 4.7188v9.3281h-4.9219v-7.9844-0.35938c0.007813-0.13281 0.015625-0.32031 0.015625-0.5625 0-1.082-0.16406-1.8633-0.48438-2.3438-0.3125-0.48828-0.82422-0.73438-1.5312-0.73438-0.92969 0-1.6484 0.38672-2.1562 1.1562-0.51172 0.76172-0.77344 1.8672-0.78125 3.3125v7.5156h-4.9219v-7.9844c0-1.6953-0.14844-2.7852-0.4375-3.2656-0.29297-0.48828-0.8125-0.73438-1.5625-0.73438-0.9375 0-1.6641 0.38672-2.1719 1.1562-0.51172 0.76172-0.76562 1.8594-0.76562 3.2969v7.5312h-4.9219v-15.312h4.9219v2.2344c0.60156-0.86328 1.2891-1.5156 2.0625-1.9531 0.78125-0.4375 1.6406-0.65625 2.5781-0.65625 1.0625 0 2 0.25781 2.8125 0.76562 0.8125 0.51172 1.4258 1.2305 1.8438 2.1562z"/>
  </symbol>
  <symbol id="v" overflow="visible">
   <path d="m1.5938-15.312h13.359v3.4219l-8.0625 8.3906h8.0625v3.5h-13.688v-3.4219l8.0625-8.3906h-7.7344z"/>
  </symbol>
  <symbol id="f" overflow="visible">
   <path d="m9.6406-12.188c-1.0859 0-1.9141 0.39062-2.4844 1.1719-0.57422 0.78125-0.85938 1.9062-0.85938 3.375s0.28516 2.5938 0.85938 3.375c0.57031 0.77344 1.3984 1.1562 2.4844 1.1562 1.0625 0 1.875-0.38281 2.4375-1.1562 0.57031-0.78125 0.85938-1.9062 0.85938-3.375s-0.28906-2.5938-0.85938-3.375c-0.5625-0.78125-1.375-1.1719-2.4375-1.1719zm0-3.5c2.6328 0 4.6914 0.71484 6.1719 2.1406 1.4766 1.418 2.2188 3.3867 2.2188 5.9062 0 2.5117-0.74219 4.4805-2.2188 5.9062-1.4805 1.418-3.5391 2.125-6.1719 2.125-2.6484 0-4.7148-0.70703-6.2031-2.125-1.4922-1.4258-2.2344-3.3945-2.2344-5.9062 0-2.5195 0.74219-4.4883 2.2344-5.9062 1.4883-1.4258 3.5547-2.1406 6.2031-2.1406z"/>
  </symbol>
  <symbol id="u" overflow="visible">
   <path d="m2.3594-21.281h4.8906v21.281h-4.8906z"/>
  </symbol>
  <symbol id="t" overflow="visible">
   <path d="m0.98438-15.312h4.7656l2.5625 10.547 2.5781-10.547h4.0938l2.5781 10.438 2.5781-10.438h4.75l-4.0312 15.312h-5.3438l-2.5781-10.531-2.5781 10.531h-5.3438z"/>
  </symbol>
  <symbol id="j" overflow="visible">
   <path d="m2.3594-15.312h4.8906v15.312h-4.8906zm0-5.9688h4.8906v4h-4.8906z"/>
  </symbol>
  <symbol id="s" overflow="visible">
   <path d="m12.422-21.281v3.2188h-2.7031c-0.6875 0-1.1719 0.125-1.4531 0.375-0.27344 0.25-0.40625 0.6875-0.40625 1.3125v1.0625h4.1875v3.5h-4.1875v11.812h-4.8906v-11.812h-2.4375v-3.5h2.4375v-1.0625c0-1.6641 0.46094-2.8984 1.3906-3.7031 0.92578-0.80078 2.3672-1.2031 4.3281-1.2031z"/>
  </symbol>
  <symbol id="r" overflow="visible">
   <path d="m2.5781-20.406h5.875l7.4219 14v-14h4.9844v20.406h-5.875l-7.4219-14v14h-4.9844z"/>
  </symbol>
  <symbol id="q" overflow="visible">
   <path d="m17.75-9.3281v9.3281h-4.9219v-7.1406c0-1.3203-0.03125-2.2344-0.09375-2.7344s-0.16797-0.86719-0.3125-1.1094c-0.1875-0.3125-0.44922-0.55469-0.78125-0.73438-0.32422-0.17578-0.69531-0.26562-1.1094-0.26562-1.0234 0-1.8242 0.39844-2.4062 1.1875-0.58594 0.78125-0.875 1.8711-0.875 3.2656v7.5312h-4.8906v-15.312h4.8906v2.2344c0.73828-0.88281 1.5195-1.5391 2.3438-1.9688 0.83203-0.42578 1.75-0.64062 2.75-0.64062 1.7695 0 3.1133 0.54688 4.0312 1.6406 0.91406 1.0859 1.375 2.6562 1.375 4.7188z"/>
  </symbol>
  <symbol id="p" overflow="visible">
   <path d="m2.5781-20.406h8.7344c2.5938 0 4.582 0.57812 5.9688 1.7344 1.3945 1.1484 2.0938 2.7891 2.0938 4.9219 0 2.1367-0.69922 3.7812-2.0938 4.9375-1.3867 1.1562-3.375 1.7344-5.9688 1.7344h-3.4844v7.0781h-5.25zm5.25 3.8125v5.7031h2.9219c1.0195 0 1.8047-0.25 2.3594-0.75 0.5625-0.5 0.84375-1.2031 0.84375-2.1094 0-0.91406-0.28125-1.6172-0.84375-2.1094-0.55469-0.48828-1.3398-0.73438-2.3594-0.73438z"/>
  </symbol>
  <symbol id="o" overflow="visible">
   <path d="m2.3594-15.312h4.8906v15.031c0 2.0508-0.49609 3.6172-1.4844 4.7031-0.98047 1.082-2.4062 1.625-4.2812 1.625h-2.4219v-3.2188h0.85938c0.92578 0 1.5625-0.21094 1.9062-0.625 0.35156-0.41797 0.53125-1.2461 0.53125-2.4844zm0-5.9688h4.8906v4h-4.8906z"/>
  </symbol>
  <symbol id="n" overflow="visible">
   <path d="m14.719-14.828v3.9844c-0.65625-0.45703-1.3242-0.79688-2-1.0156-0.66797-0.21875-1.3594-0.32812-2.0781-0.32812-1.3672 0-2.4336 0.40234-3.2031 1.2031-0.76172 0.79297-1.1406 1.9062-1.1406 3.3438 0 1.4297 0.37891 2.543 1.1406 3.3438 0.76953 0.79297 1.8359 1.1875 3.2031 1.1875 0.75781 0 1.4844-0.10938 2.1719-0.32812 0.6875-0.22656 1.3203-0.56641 1.9062-1.0156v4c-0.76172 0.28125-1.5391 0.48828-2.3281 0.625-0.78125 0.14453-1.5742 0.21875-2.375 0.21875-2.7617 0-4.9219-0.70703-6.4844-2.125-1.5547-1.4141-2.3281-3.3828-2.3281-5.9062 0-2.5312 0.77344-4.5039 2.3281-5.9219 1.5625-1.4141 3.7227-2.125 6.4844-2.125 0.80078 0 1.5938 0.074219 2.375 0.21875 0.78125 0.13672 1.5547 0.35156 2.3281 0.64062z"/>
  </symbol>
 </defs>
 <g>
  <path d="m576.8 106.4h-39.199c-7.7344 0-14 6.2695-14 14v336c0 3.7148 1.4727 7.2773 4.0977 9.9023s6.1875 4.0977 9.9023 4.0977h39.199c3.7109 0 7.2734-1.4727 9.8984-4.0977s4.1016-6.1875 4.1016-9.9023v-336c0-3.7109-1.4766-7.2734-4.1016-9.8984s-6.1875-4.1016-9.8984-4.1016zm2.8008 350c0 0.74609-0.29687 1.457-0.82031 1.9805-0.52734 0.52734-1.2383 0.82031-1.9805 0.82031h-39.199c-1.5469 0-2.8008-1.2539-2.8008-2.8008v-42h22.008c3.0938 0 5.5977-2.5039 5.5977-5.5977s-2.5039-5.6016-5.5977-5.6016h-22.008v-16.801h33.207c3.0938 0 5.6016-2.5039 5.6016-5.5977s-2.5078-5.6016-5.6016-5.6016h-33.207v-16.801h9.6875c3.0938 0 5.6016-2.5039 5.6016-5.5977s-2.5078-5.6016-5.6016-5.6016h-9.6875v-16.801h33.207c3.0938 0 5.6016-2.5039 5.6016-5.5977s-2.5078-5.6016-5.6016-5.6016h-33.207v-16.801h9.6875c3.0938 0 5.6016-2.5039 5.6016-5.5977s-2.5078-5.6016-5.6016-5.6016h-9.6875v-16.801h27.215c3.0938 0 5.6016-2.5039 5.6016-5.5977s-2.5078-5.6016-5.6016-5.6016h-27.215v-16.801h9.6875c3.0938 0 5.6016-2.5039 5.6016-5.5977s-2.5078-5.6016-5.6016-5.6016h-9.6875v-16.801h37.184c3.0938 0 5.6016-2.5039 5.6016-5.5977s-2.5078-5.6016-5.6016-5.6016h-37.184v-16.801h12.32c3.0898 0 5.5977-2.5039 5.5977-5.5977s-2.5078-5.6016-5.5977-5.6016h-12.32v-16.801h31.695c3.0938 0 5.6016-2.5039 5.6016-5.5977s-2.5078-5.6016-5.6016-5.6016h-31.695v-16.801h22.008c3.0938 0 5.5977-2.5039 5.5977-5.5977s-2.5039-5.6016-5.5977-5.6016h-22.008v-2.8008c0-1.543 1.2539-2.7969 2.8008-2.7969h39.199c0.74219 0 1.4531 0.29297 1.9805 0.82031 0.52344 0.52344 0.82031 1.2344 0.82031 1.9766z"/>
  <path d="m143.41 212.8c2.3906-0.019531 4.5039-1.5469 5.2656-3.8086l29.398-85.793h208.94c3.0938 0 5.6016-2.5078 5.6016-5.5977 0-3.0938-2.5078-5.6016-5.6016-5.6016h-212.8c-2.4062-0.007812-4.5469 1.5273-5.3203 3.8086l-25.199 73.473-22.961-72.465c-0.37109-1.5039-1.3516-2.7852-2.707-3.543-1.3555-0.75391-2.9609-0.91016-4.4375-0.4375-1.4766 0.47266-2.6914 1.5391-3.3516 2.9414-0.66406 1.3984-0.71484 3.0117-0.14062 4.4531l28 88.648c0.73047 2.3281 2.8828 3.9102 5.3164 3.9219z"/>
  <path d="m196.22 207.2c1.0352 0.82812 2.3164 1.2812 3.6406 1.2891 1.6367 0 3.1914-0.71484 4.2578-1.9609l22.121-26.152 22.062 26.152c1.0742 1.2578 2.6562 1.9766 4.3125 1.9609 1.3086 0.003907 2.5742-0.45312 3.582-1.2891 1.1367-0.95703 1.8477-2.3281 1.9727-3.8086s-0.33984-2.9492-1.3008-4.0859l-23.297-27.609 23.297-27.609v0.003906c1.9961-2.3672 1.6953-5.9023-0.67188-7.8984-2.3633-1.9961-5.8984-1.6953-7.8945 0.67188l-22.066 26.152-21.84-26.152c-0.91016-1.2695-2.3125-2.0977-3.8633-2.2852-1.5508-0.19141-3.1133 0.27734-4.3047 1.2891-1.1914 1.0078-1.9062 2.4727-1.9727 4.0352-0.0625 1.5625 0.52734 3.0781 1.6289 4.1875l23.297 27.609-23.297 27.609v-0.003906c-2.0781 2.2734-1.9297 5.8047 0.33594 7.8945z"/>
  <path d="m354.7 224c-1.1367-0.95703-2.6055-1.4258-4.0859-1.3008-1.4805 0.125-2.8516 0.83594-3.8086 1.9727l-52.809 62.215c-0.96484 1.1367-1.4414 2.6094-1.3203 4.0977 0.12109 1.4844 0.82812 2.8633 1.9648 3.8281 2.3672 2.0117 5.9141 1.7227 7.9219-0.64453l53.035-62.441c1.8281-2.3945 1.4336-5.8125-0.89844-7.7266z"/>
  <path d="m189.84 257.6c0 1.4844 0.58984 2.9062 1.6406 3.957 1.0508 1.0508 2.4727 1.6406 3.9609 1.6406h25.758v23.52c0 3.0938 2.5078 5.6016 5.6016 5.6016s5.5977-2.5078 5.5977-5.6016v-23.52h25.762c3.0938 0 5.6016-2.5078 5.6016-5.5977 0-3.0938-2.5078-5.6016-5.6016-5.6016h-25.762v-23.52c0-3.0938-2.5039-5.6016-5.5977-5.6016s-5.6016 2.5078-5.6016 5.6016v23.52h-25.758c-3.0938 0-5.6016 2.5078-5.6016 5.6016z"/>
  <path d="m293.38 179.2h62.664c3.0938 0 5.6016-2.5078 5.6016-5.5977 0-3.0938-2.5078-5.6016-5.6016-5.6016h-62.664c-3.0898 0-5.5977 2.5078-5.5977 5.6016 0 3.0898 2.5078 5.5977 5.5977 5.5977z"/>
  <path d="m291.87 240.8h3.0234c3.0938 0 5.6016-2.5078 5.6016-5.6016s-2.5078-5.5977-5.6016-5.5977h-3.0234c-3.0938 0-5.5977 2.5039-5.5977 5.5977s2.5039 5.6016 5.5977 5.6016z"/>
  <path d="m354.59 285.6h2.9688-0.003906c3.0938 0 5.6016-2.5078 5.6016-5.6016s-2.5078-5.6016-5.6016-5.6016h-2.9688 0.003906c-3.0938 0-5.6016 2.5078-5.6016 5.6016s2.5078 5.6016 5.6016 5.6016z"/>
  <path d="m127.18 397.6c0 39.816 34.664 72.184 77.223 72.184 42.562 0 77.113-32.312 77.227-72.184 0-1.4883-0.58984-2.9102-1.6406-3.9609s-2.4766-1.6406-3.9609-1.6406h-66.023v-60.816c0-1.4844-0.58984-2.9102-1.6406-3.9609-1.0508-1.0469-2.4727-1.6367-3.9609-1.6367-42.559-0.17188-77.223 32.199-77.223 72.016zm71.625-60.707v60.707c0 1.4844 0.58984 2.9062 1.6406 3.957 1.0508 1.0508 2.4727 1.6406 3.957 1.6406h65.746c-3.0781 31.023-31.359 55.383-65.742 55.383-36.402 0.003907-66.027-27.383-66.027-60.98 0-31.867 26.824-58.074 60.426-60.707z"/>
  <path d="m304.02 380.8c0-39.703-34.609-72.016-77.113-72.07v-0.003907c-3.0898 0-5.5977 2.5078-5.5977 5.6016v66.473c0 1.4844 0.58984 2.9102 1.6406 3.9609 1.0508 1.0469 2.4727 1.6367 3.957 1.6367h71.516c1.4844 0 2.9062-0.58984 3.957-1.6367 1.0508-1.0508 1.6406-2.4766 1.6406-3.9609zm-71.625-5.6016v-55.102c31.809 2.4648 57.23 25.816 60.145 55.105z"/>
  <path d="m400.4 213.47c0.35547 0.054688 0.71484 0.054688 1.0664 0 16.238-3.1367 27.441-29.176 40.434-59.359 3.5273-8.1758 7.2812-16.801 11.199-25.199h13.105l-0.003906-0.003906c3.0938 0 5.6016-2.5039 5.6016-5.5977s-2.5078-5.6016-5.6016-5.6016h-7.7266c7.168-12.879 14.785-22.398 22.398-22.398 4.6172-0.38281 9.2656 0.074219 13.723 1.3438 2.875 1.2539 6.2227-0.0625 7.4727-2.9414 1.2539-2.875-0.0625-6.2227-2.9375-7.4766-5.8477-1.9023-12.008-2.6602-18.145-2.2383h-0.61719c-14.113 0-24.922 14.223-34.945 33.602h-14.223c-3.0938 0-5.5977 2.5039-5.5977 5.5977s2.5039 5.6016 5.5977 5.6016h9.2969c-3.0781 6.6641-6.1055 13.664-9.1836 20.777-10.246 23.801-21.84 50.793-32.258 52.809v-0.003907c-3.0898 0.29688-5.3594 3.0391-5.0664 6.1328s3.0391 5.3633 6.1328 5.0703z"/>
  <path d="m498.34 173.6c-1.0508-1.0625-2.4844-1.6562-3.9766-1.6562-1.4922 0-2.9219 0.59375-3.9766 1.6562l-10.305 9.5742-10.305-9.5742h0.003906c-0.92188-1.4102-2.4258-2.332-4.1016-2.5117-1.6758-0.17578-3.3398 0.41016-4.5352 1.5977-1.1953 1.1836-1.793 2.8477-1.6289 4.5234 0.16797 1.6758 1.0781 3.1875 2.4805 4.1172l9.8555 9.0703-9.8555 8.9609c-2.1328 2.1797-2.1328 5.6641 0 7.8398 2.1836 2.1719 5.7109 2.1719 7.8945 0l10.305-9.5742 10.305 9.5742c1.0312 0.96875 2.3945 1.5078 3.8086 1.5117 1.5703 0.011718 3.0742-0.63672 4.1445-1.7891 1.0156-1.0977 1.5508-2.5547 1.4883-4.0469-0.0625-1.4961-0.71875-2.9023-1.8242-3.9062l-9.8008-8.5703 9.6875-9.0156c2.1953-2.0781 2.3438-5.5234 0.33594-7.7812z"/>
  <path d="m361.2 470.4c0 1.4883 0.58984 2.9102 1.6406 3.9609 1.0508 1.0508 2.4766 1.6406 3.9609 1.6406h90.773c0.67188-0.023438 1.3359-0.15625 1.9609-0.39062h0.72656l21.168-11.199 0.003906-0.003906c1.9102-1.0156 3.0664-3.043 2.9648-5.207v-89.598c0.082031-0.57812 0.082031-1.1602 0-1.7383l-0.33594-0.55859c-0.20703-0.39453-0.45312-0.76953-0.72656-1.1211l-0.50391-0.44922c-0.33594-0.30859-0.71094-0.57422-1.1211-0.78125l-0.55859-0.28125c-0.73438-0.37109-1.5312-0.60156-2.3516-0.67188h-97.723c-1.6367 0-3.1914 0.71484-4.2539 1.9609l-14.281 16.801s0 0.44922-0.39062 0.67188c-0.23828 0.30078-0.42969 0.64062-0.55859 1.0078-0.054688 0.39062-0.054688 0.78516 0 1.1758-0.17188 0.23828-0.30469 0.50391-0.39453 0.78125zm100.8-80.695 11.199-7.5039v74.703l-11.199 5.2656zm-79.352-14.504h79.352l-7.2227 5.6016h-76.777zm-10.25 16.801h78.402v72.801h-78.402z"/>
  <path d="m495.6 338.52v-104.78c0-14.055-28-17.809-44.801-17.809s-44.801 3.7539-44.801 17.809v104.78c0 14.055 28 17.809 44.801 17.809s44.801-3.5273 44.801-17.809zm-44.801-110.15c18.367 0 29.344 4.0312 32.258 6.3281-2.9102 2.2969-13.887 6.2734-32.258 6.2734-18.367 0-29.344-3.9766-32.258-6.2734 3.1914-2.2969 14.168-6.3281 32.535-6.3281zm0 115.53c-18.367 0-29.344-4.0312-32.258-6.3281 2.9102-2.2969 13.887-6.2734 32.258-6.2734 18.367 0 29.344 3.9766 32.258 6.2734-2.6328 2.2969-13.609 6.3281-31.98 6.3281zm33.602-17.641-0.003906 0.003906c-21.836-7.0977-45.359-7.0977-67.199 0v-80.25c21.84 7.0938 45.363 7.0938 67.199 0z"/>
  <use x="70" y="644" xlink:href="#w"/>
  <use x="90.550781" y="644" xlink:href="#a"/>
  <use x="104.359375" y="644" xlink:href="#e"/>
  <use x="123.347656" y="644" xlink:href="#d"/>
  <use x="142.242188" y="644" xlink:href="#c"/>
  <use x="155.628906" y="644" xlink:href="#e"/>
  <use x="174.617188" y="644" xlink:href="#b"/>
  <use x="204.410156" y="644" xlink:href="#m"/>
  <use x="224.453125" y="644" xlink:href="#l"/>
  <use x="252.453125" y="644" xlink:href="#k"/>
  <use x="280.3125" y="644" xlink:href="#g"/>
  <use x="300.25" y="644" xlink:href="#i"/>
  <use x="320.179688" y="644" xlink:href="#d"/>
  <use x="339.078125" y="644" xlink:href="#h"/>
  <use x="368.25" y="644" xlink:href="#h"/>
  <use x="397.429688" y="644" xlink:href="#d"/>
  <use x="416.320312" y="644" xlink:href="#b"/>
  <use x="446.113281" y="644" xlink:href="#b"/>
  <use x="466.15625" y="644" xlink:href="#v"/>
  <use x="482.453125" y="644" xlink:href="#g"/>
  <use x="502.386719" y="644" xlink:href="#a"/>
  <use x="516.195312" y="644" xlink:href="#a"/>
  <use x="530.003906" y="644" xlink:href="#f"/>
  <use x="549.242187" y="644" xlink:href="#c"/>
  <use x="562.625" y="644" xlink:href="#g"/>
  <use x="582.558594" y="644" xlink:href="#u"/>
  <use x="601.90625" y="644" xlink:href="#t"/>
  <use x="627.773437" y="644" xlink:href="#d"/>
  <use x="646.664062" y="644" xlink:href="#j"/>
  <use x="656.265625" y="644" xlink:href="#b"/>
  <use x="676.304687" y="644" xlink:href="#i"/>
  <use x="696.242187" y="644" xlink:href="#j"/>
  <use x="70" y="672" xlink:href="#s"/>
  <use x="82.183594" y="672" xlink:href="#a"/>
  <use x="95.992188" y="672" xlink:href="#f"/>
  <use x="115.226562" y="672" xlink:href="#h"/>
  <use x="154.152344" y="672" xlink:href="#c"/>
  <use x="167.535156" y="672" xlink:href="#i"/>
  <use x="187.46875" y="672" xlink:href="#e"/>
  <use x="216.207031" y="672" xlink:href="#r"/>
  <use x="239.640625" y="672" xlink:href="#f"/>
  <use x="258.878906" y="672" xlink:href="#g"/>
  <use x="278.8125" y="672" xlink:href="#q"/>
  <use x="308.492188" y="672" xlink:href="#p"/>
  <use x="329.015625" y="672" xlink:href="#a"/>
  <use x="342.820312" y="672" xlink:href="#f"/>
  <use x="362.058594" y="672" xlink:href="#o"/>
  <use x="371.65625" y="672" xlink:href="#e"/>
  <use x="390.648438" y="672" xlink:href="#n"/>
  <use x="407.242188" y="672" xlink:href="#c"/>
 </g>
</svg>
