<?xml version="1.0" encoding="UTF-8"?>
<svg width="700pt" height="700pt" version="1.1" viewBox="0 0 700 700" xmlns="http://www.w3.org/2000/svg">
 <g>
  <path d="m514.3 250.1c-0.39063-2.1836-2.2383-3.8086-4.4258-3.8086h-288.29c-1.2305 0-2.4648 0.50391-3.3594 1.457-0.78516 0.89453-1.2344 2.125-1.1797 3.4141 4.3672 56.617-32.93 136.59-33.32 137.37-0.61328 1.4023-0.55859 3.0234 0.28125 4.3672s2.2383 2.0703 3.7539 2.0703h29.23v81.035c0 1.1758 0.55859 2.4062 1.3984 3.3047 0.83984 0.89453 2.1289 1.2891 3.3633 1.1758l89.543-4.2578-4.1445 53.48c-0.11328 1.1758 0.33594 2.5195 1.1758 3.418 0.89453 1.0078 2.0703 1.3984 3.3594 1.3984h148.57c2.4648 0 4.4258-1.9609 4.5352-4.3672l2.1875-101.75c64.625-61.879 47.992-173.54 47.32-178.3zm-54.879 173.09c-0.89844 0.83984-1.4023 1.9609-1.4023 3.1367l-2.1289 99.23h-139.44l4.1445-53.703c0.16797-1.3438-0.28125-2.5195-1.2344-3.5273-0.83984-0.83984-2.2383-1.3984-3.4141-1.2891l-89.824 4.2578v-80.809c0-2.5195-2.0156-4.5938-4.5352-4.5938h-26.77c8.6797-19.824 33.488-81.312 31.527-130.59h279.5c2.2969 20.164 9.8555 115.48-46.422 167.89z"/>
  <path d="m308.79 290.25h-56.336c-2.4648 0-4.4805 2.0156-4.4805 4.5352v17.305c0 2.5195 2.0156 4.4805 4.4805 4.4805 2.5195 0 4.5352-1.9609 4.5352-4.4805v-12.82h51.801c2.4648 0 4.4258-2.0156 4.4258-4.5352-0.003907-2.5234-1.9648-4.4844-4.4258-4.4844z"/>
  <path d="m277.98 189.73c1.2305 0 2.5195-0.16797 3.6953-0.55859 6.5508-2.0156 10.191-9.0156 8.1758-15.566-1.9609-6.4961-9.1289-10.25-15.566-8.1758-3.1367 0.94922-5.7695 3.0781-7.2812 6.0469-1.625 2.9102-1.9023 6.2695-0.95312 9.4648 1.6797 5.2617 6.4414 8.7891 11.93 8.7891zm-3.3047-11.422c-0.28125-0.89844-0.16797-1.8477 0.28125-2.6328 0.39062-0.83984 1.1211-1.3984 2.0156-1.6797 0.33594-0.11328 0.67188-0.16797 1.0078-0.16797 1.5117 0 2.8555 1.0078 3.3047 2.4062 0.55859 1.793-0.44922 3.7539-2.2969 4.3125-1.8477 0.5625-3.7539-0.50391-4.3125-2.2383z"/>
  <path d="m340.14 220.08c1.2305 0 2.5195-0.16797 3.6953-0.55859 3.1914-1.0078 5.8242-3.1367 7.3359-6.1055 1.625-2.9648 1.9023-6.3242 0.83984-9.4609-1.9609-6.4414-9.0156-10.25-15.512-8.1758-3.1914 0.94922-5.8242 3.1328-7.3359 6.0469-1.5117 2.9688-1.8477 6.3281-0.89453 9.5195 1.6797 5.207 6.4375 8.7344 11.871 8.7344zm-2.9688-14.055c0.44922-0.83984 1.1758-1.3984 2.0156-1.6797 0.28125-0.11328 0.72656-0.16797 1.0078-0.16797 1.5117 0 2.9102 1.0078 3.3047 2.4062 0.28125 0.89453 0.22266 1.793-0.22266 2.6328-0.44922 0.83984-1.1758 1.3984-2.0156 1.6797-1.793 0.55859-3.6953-0.50391-4.2578-2.2383-0.33594-0.89453-0.28125-1.8477 0.16797-2.6328z"/>
  <path d="m279.61 238.34c1.3984 0 2.7422-0.61719 3.6406-1.8477l58.969-82.824c1.3984-2.0156 1.0078-4.8164-1.0625-6.2734-1.9648-1.4531-4.8203-1.0078-6.2773 1.0078l-58.91 82.824c-1.457 2.0742-1.0078 4.875 1.0078 6.3281 0.83984 0.50391 1.7344 0.78516 2.6328 0.78516z"/>
  <path d="m263.2 80.359h41.328v41.383c0 2.4648 2.0156 4.4805 4.5352 4.4805 2.4648 0 4.5352-2.0156 4.5352-4.4805l0.003906-41.383h41.328c2.4648 0 4.4805-2.0156 4.4805-4.5352s-2.0156-4.4805-4.4805-4.4805h-41.273v-41.383c0-2.5195-2.0703-4.5352-4.5352-4.5352-2.5195 0-4.5352 2.0156-4.5352 4.5352v41.383h-41.387c-2.5195 0-4.4805 2.0156-4.4805 4.4805 0 2.4648 1.9609 4.5352 4.4805 4.5352z"/>
  <path d="m449.9 159.82h-60.703c-2.5195 0-4.4805 2.0156-4.4805 4.5352s1.9609 4.4805 4.4805 4.4805h60.703c2.5195 0 4.4805-2.0156 4.4805-4.4805s-1.957-4.5352-4.4805-4.5352z"/>
  <path d="m449.9 201.54h-60.703c-2.5195 0-4.4805 2.0156-4.4805 4.4805 0 2.4648 1.9609 4.5352 4.4805 4.5352h60.703c2.5195 0 4.4805-2.0156 4.4805-4.5352 0-2.5195-1.957-4.4805-4.4805-4.4805z"/>
  <path d="m350.67 115.41c1.6797 1.793 4.5352 1.9023 6.3828 0.16797l7.4492-7.0547 10.809 23.297c0.78516 1.5664 2.4062 2.5742 4.1445 2.5742h0.33594c1.9023-0.16797 3.5273-1.5117 4.0312-3.3594l18.594-69.551h67.031c2.5195 0 4.5352-2.0156 4.5352-4.5352s-1.9609-4.4805-4.4805-4.4805h-70.559c-2.0156 0-3.7539 1.3438-4.3672 3.3594l-16.297 60.93-8.2891-17.699c-0.55859-1.2852-1.793-2.2383-3.1914-2.5195-1.3984-0.28125-2.9102 0.11328-3.9219 1.1758l-12.039 11.312c-1.8477 1.7383-1.9023 4.5352-0.16797 6.3828z"/>
 </g>
</svg>
