<?xml version="1.0" encoding="UTF-8"?>
<svg width="700pt" height="700pt" version="1.1" viewBox="0 0 700 700" xmlns="http://www.w3.org/2000/svg">
 <path d="m595 490h-52.5v-3.2188c20.336-7.2461 35-26.477 35-49.281 0-22.801-14.664-42.035-35-49.281v-353.22c0-9.6758-7.8242-17.5-17.5-17.5s-17.5 7.8242-17.5 17.5v353.22c-20.336 7.2461-35 26.477-35 49.281 0 22.801 14.664 42.035 35 49.281v3.2188h-140v-3.2188c20.336-7.2461 35-26.477 35-49.281 0-22.801-14.664-42.035-35-49.281v-23.922c20.336-7.2461 35-26.477 35-49.281 0-22.801-14.664-42.035-35-49.281v-23.922c20.336-7.2461 35-26.477 35-49.281 0-22.801-14.664-42.035-35-49.281v-108.25c0-9.6758-7.8242-17.5-17.5-17.5s-17.5 7.8242-17.5 17.5v108.22c-20.336 7.2461-35 26.461-35 49.281s14.664 42.035 35 49.281v23.922c-20.336 7.2461-35 26.477-35 49.281 0 22.801 14.664 42.035 35 49.281v23.922c-20.336 7.2461-35 26.477-35 49.281 0 22.801 14.664 42.035 35 49.281v3.25h-140v-3.2188c20.336-7.2461 35-26.461 35-49.281s-14.664-42.035-35-49.281v-23.922c20.336-7.2617 35-26.477 35-49.297s-14.664-42.035-35-49.281v-230.72c0-9.6758-7.8242-17.5-17.5-17.5s-17.5 7.8242-17.5 17.5v230.72c-20.336 7.2461-35 26.461-35 49.281s14.664 42.035 35 49.281v23.922c-20.336 7.2617-35 26.477-35 49.297s14.664 42.035 35 49.281v3.2188h-52.5c-9.6758 0-17.5 7.8242-17.5 17.5v17.5c0 9.6758 7.8242 17.5 17.5 17.5h490c9.6758 0 17.5-7.8242 17.5-17.5v-17.5c0-9.6758-7.8242-17.5-17.5-17.5z"/>
</svg>
