<?xml version="1.0" encoding="UTF-8"?>
<svg width="700pt" height="700pt" version="1.1" viewBox="0 0 700 700" xmlns="http://www.w3.org/2000/svg">
 <g>
  <path d="m294 134.4c0 30.891 25.133 56 56 56s56-25.109 56-56c0-30.891-25.133-56-56-56s-56 25.113-56 56zm89.602 0c0 18.523-15.074 33.602-33.602 33.602-18.523 0-33.602-15.074-33.602-33.602 0-18.523 15.074-33.602 33.602-33.602 18.523 0.003906 33.602 15.078 33.602 33.602z"/>
  <path d="m350 369.6c-30.867 0-56 25.109-56 56 0 30.891 25.133 56 56 56s56-25.113 56-56c0-30.891-25.133-56-56-56zm0 89.598c-18.523 0-33.602-15.074-33.602-33.602 0-18.523 15.074-33.602 33.602-33.602 18.523 0.003906 33.602 15.078 33.602 33.605 0 18.523-15.078 33.598-33.602 33.598z"/>
  <path d="m506.8 212.8h-313.6c-37.051 0-67.199 30.152-67.199 67.199 0 37.051 30.152 67.199 67.199 67.199h313.6c37.051 0 67.199-30.152 67.199-67.199 0-37.051-30.152-67.199-67.199-67.199zm0 112h-313.6c-24.707 0-44.801-20.094-44.801-44.801s20.094-44.801 44.801-44.801h313.6c24.707 0 44.801 20.094 44.801 44.801s-20.094 44.801-44.801 44.801z"/>
 </g>
</svg>
